<svg width="1192" height="274" fill="none" xmlns="http://www.w3.org/2000/svg"><path d="M33.8 258.8V19.4h31.8v239.4H33.8zm214.8 0h-43.1l-110.4-92c-10.9-9.1-16.4-19.5-16.4-31.1 0-9.1 4.9-17.9 14.7-26.3l101.2-89.9H236l-112.8 98.8c-.7.7-1.9 1.7-3.6 3.1-1.7 1.4-3 2.4-3.8 3.3-.8.8-1.8 1.8-2.9 3.1-1.1 1.3-1.9 2.6-2.4 3.9-.5 1.4-.7 2.7-.7 4.1 0 5.7 5.4 12.9 16.1 21.5l122.7 101.5zm181 0h-143c-6.1 0-11.3-1.8-15.4-5.5-4.1-3.6-6.1-9.3-6.1-17.1 0-10.5 4-18.8 12-25L392 126.1c6.8-5 11.3-10.4 13.5-16.1 2.2-5.7 3.3-13.8 3.3-24.3 0-13.9-1.9-24-5.8-30.4-3.9-6.4-12.4-9.6-25.6-9.6H282V19.4h105c19.8 0 33.9 5 42.1 14.9 8.2 9.9 12.3 26 12.3 48.4 0 15.7-1.9 28.2-5.8 37.3-3.9 9.1-11.6 18-23.2 26.7l-106 79.3c-2.7 2.3-4.1 3.8-4.1 4.5 0 1.6 1 2.4 3.1 2.4h124.5v25.9h-.3zm161.8 0h-31.8V45.4h-96.8v-26h225.3v26h-96.8v213.4h.1zm305 0H746.9c-22.3 0-33.5-11.3-33.5-33.9V53.3c0-12.3 2.9-21 8.6-26.2 5.7-5.1 14-7.7 25-7.7h148v26H761c-6.4 0-10.6 1.1-12.7 3.4-2 2.3-3.1 6.5-3.1 12.7v61.9h146.4v26H745.2v67c0 6.1 1 10.4 3.1 12.8 2.1 2.4 6.3 3.6 12.7 3.6h135.4v26zm226.3 0h34.6c-17.5-25.3-66.3-88.7-77.2-105.1-7.7-11.7-7.7-18.3-.2-29.4 9-13 67.2-94 74.4-104.9h-34.1c-18 27.5-57.9 83.7-64.5 93.3-14.4 21.1-11.1 35.7 3.4 57.5 9 13.9 43 58.7 63.6 88.6zm-164.7 0c20.6-29.8 55.6-74.7 64.6-88.5 14.5-21.8 17.8-36.4 3.4-57.5-6.6-9.6-46.5-65.9-64.5-93.3h-34.1c7.2 10.9 65.3 91.9 74.4 104.9 7.5 11.1 7.5 17.7-.2 29.4-10.9 16.4-60.6 79.8-78.2 105.1H958" fill="#00A460"/></svg>