<svg xmlns="http://www.w3.org/2000/svg" viewBox="0 0 231.38 42.59"><g data-name="Layer 2"><g data-name="Layer 1"><path d="M6.6 42.59h6.66V26.31a10.44 10.44 0 0110.34-9.18h13.84a3.72 3.72 0 013.9 3.53v21.93H48V20.68a10.43 10.43 0 00-10.55-10.23H23.5a17 17 0 00-10.24 3.48v-3.46H0v6.66h6.6zm169.59-32.11H154.9a9.48 9.48 0 00-9.47 9.52v11.7a10.9 10.9 0 0010.9 10.89h28.61v-6.66h-28.61a4.23 4.23 0 01-4.23-4.23v-1h33.55V20a9.47 9.47 0 00-9.46-9.52zM179 24h-26.9v-4a2.8 2.8 0 012.8-2.8h21.29A2.81 2.81 0 01179 20zm-91.9 9a3 3 0 01-3 3H63.73a4.43 4.43 0 01-4.43-4.43v-21h-6.63v21a11.1 11.1 0 0011.08 11.1h20.38A9.61 9.61 0 0093.76 33V10.47H87.1zm134.98-9h-21.51a2.64 2.64 0 01-2.64-2.64v-1.6a2.64 2.64 0 012.64-2.64h22.92v-6.68h-22.92a9.32 9.32 0 00-9.31 9.3v1.6a9.33 9.33 0 009.31 9.31h21.51a2.64 2.64 0 010 5.28H191.8v6.66h30.28a9.31 9.31 0 000-18.61zm-91.77-13.54h-21.43a9.28 9.28 0 00-2.85.44V0h-6.66v31.63a11 11 0 0010.94 11h20a9.49 9.49 0 009.51-9.51V20a9.52 9.52 0 00-9.51-9.54zm2.85 22.62a2.88 2.88 0 01-.83 2 2.84 2.84 0 01-2 .83h-20a4.29 4.29 0 01-4.33-4.28V20a2.86 2.86 0 012.85-2.85h21.43a2.86 2.86 0 012.88 2.85z" fill="#3a3a39"/><path d="M66.35 20.94h13.73v6.82H66.35zm0-10.47h13.73v6.82H66.35zm0-10.47h13.73v6.82H66.35z" fill="#009ee3"/></g></g></svg>