<svg xmlns="http://www.w3.org/2000/svg" width="300" height="160"><path d="M98.023 112.02c-1.121.926-2.215 1.041-2.939 1.041-.904 0-1.95-.167-2.743-1.08-.754-.889-.893-2.016-.893-2.983 0-2.372.809-4.881 2.148-6.37.551-.593 1.65-1.508 3.57-1.508 1.318 0 2.1.521 2.582 1.04.734.807.91 1.833.91 2.862 0 2.477-.766 5.447-2.635 6.998zm.461-9.301c-.394-.371-1.019-.527-1.484-.527-.61 0-1.738.156-2.621 1.349-.936 1.296-1.498 3.604-1.498 5.693 0 .554.051 1.392.509 1.999.303.383.845.758 1.756.758 1.07 0 1.8-.539 2.238-.989 1.199-1.283 1.835-4.402 1.835-6.146.001-.487-.061-1.54-.735-2.137zm5.682 1.513c.13.326.196.668.196.916 0 .246-.028.608-.073.865a4.549 4.549 0 011.354-1.287c.38-.211.908-.441 1.528-.441.866 0 1.279.419 1.461.63.505.632.586 1.469.586 2.089 0 1.178-.349 3.203-1.407 4.553-.957 1.226-2.108 1.504-3.036 1.504a3.793 3.793 0 01-1.769-.42l-.703 3.471-1.301.258 1.936-9.52c.151-.684.167-1.093.167-1.324 0-.252-.036-.473-.114-.721l1.175-.573zm-.936 7.231c.32.272.793.527 1.546.527.43 0 1.356-.113 2.056-1.131.598-.854 1.032-2.637 1.032-3.768 0-.32-.038-.984-.354-1.335-.228-.247-.535-.3-.753-.3-.674 0-1.161.315-1.513.594a4.71 4.71 0 00-1.178 1.289l-.836 4.124zm13.407.359c-1.016 1.123-2.281 1.238-3.014 1.238-.682 0-1.481-.1-2.116-.85-.542-.622-.699-1.469-.699-2.23 0-1.225.378-3.146 1.744-4.523.927-.926 1.804-1.172 2.622-1.172.865 0 1.407.273 1.741.63.447.479.543 1.069.543 1.537a2.43 2.43 0 01-.734 1.754c-.751.749-2.151.938-3.401.938-.348 0-.706-.016-1.024-.031a5.736 5.736 0 00-.115 1.058c0 .744.257 1.141.486 1.361.395.393.892.449 1.194.449a2.9 2.9 0 002.03-.785l.205-.178.538.804zm-3.171-3.672c.879 0 1.629-.08 2.122-.457a1.42 1.42 0 00.61-1.205c0-.857-.577-1.167-1.211-1.167-.385 0-.942.169-1.476.761-.382.412-.806 1.129-1.003 2.053.332.015.652.015.958.015zm7.503-3.918c.064.147.191.543.191 1.006 0 .393-.076.723-.104.844.685-1.029 1.897-1.797 3.079-1.797.459 0 .865.109 1.159.426.362.379.433.867.433 1.25 0 .244-.03.423-.041.533l-1.292 6.372h-1.246l1.143-5.68c.066-.3.138-.667.138-.897 0-.207-.016-.465-.208-.647a.8.8 0 00-.562-.204c-.373 0-.755.156-1.087.356-.485.299-1.148.858-1.694 1.6l-1.095 5.473h-1.254l1.223-5.995c.07-.377.167-.803.167-1.293a2.61 2.61 0 00-.112-.773l1.162-.574zm17.427-1.115c-.388-.34-1.151-.873-2.394-.873-.884 0-1.393.283-1.571.383-.743.459-.91 1.136-.91 1.742 0 .189.029.498.225.811.178.277.529.551 1.169.834l1.15.521c.547.252.996.5 1.374 1.158.272.473.418.983.418 1.65 0 1.061-.367 1.982-1.234 2.691-.704.574-1.722 1.025-3.261 1.025-.97 0-1.994-.167-2.982-.902l.623-1.078c1.103.797 2.03.86 2.6.86.641 0 1.454-.118 2.093-.678.561-.479.755-1.052.755-1.73 0-.95-.37-1.414-1.476-1.908l-.986-.438c-1.282-.562-1.853-1.43-1.853-2.634 0-.79.257-2.055 1.641-2.859.689-.404 1.554-.574 2.365-.574.881 0 1.965.23 2.926.992l-.672 1.007zm4.377 9.356c-.737 1.42-1.299 2.541-2.017 3.112-.313.26-.882.579-1.539.726l-.29-.895c.572-.109 1.054-.435 1.4-.766.211-.201.608-.685 1.021-1.784l-.508.058c.009-.781-.129-2.492-.187-3l-.656-5.351 1.305-.272.545 5.363c.062.574.047 1.096.047 2.088.511-.926.682-1.331.887-1.771l2.674-5.495h1.437l-4.119 7.987zm9.586-6.567c-.851-.533-1.492-.601-1.845-.601-.584 0-1.036.132-1.309.336-.174.115-.46.394-.46.957 0 .251.078.421.144.546.143.233.464.438.702.543l.996.431c.476.188.937.415 1.269.899.196.278.375.678.375 1.221 0 .611-.211 1.481-1.077 2.129-.701.526-1.533.693-2.33.693-1.162 0-2.044-.355-2.699-.781l.497-1.001c.689.489 1.497.772 2.333.772.571 0 1.167-.15 1.484-.451.255-.23.399-.625.399-.99 0-.738-.386-1.053-.976-1.329l-.923-.43c-.178-.079-.706-.333-1.026-.645-.241-.257-.511-.676-.511-1.335 0-.646.26-1.461 1.057-2.004.538-.367 1.337-.582 2.142-.582 1.215 0 1.932.403 2.246.615l-.488 1.007zm6.06-.431h-1.718l-.992 4.916a5.08 5.08 0 00-.113.936c0 .263.045.426.129.547.154.215.413.246.67.246.283 0 .558-.031.836-.163v.842c-.52.233-1.024.334-1.425.334-.61 0-.949-.171-1.136-.35-.322-.325-.355-.826-.355-1.114 0-.264.088-.857.125-1.131l1.008-5.063h-1.04l.179-.989h1.055c.294-1.169.364-1.493.565-2.126l1.386-.305c-.348 1.047-.545 1.826-.649 2.431h1.974l-.499.989zm6.363 6.347c-1.01 1.123-2.272 1.238-3.008 1.238-.684 0-1.479-.1-2.129-.85-.53-.622-.692-1.469-.692-2.23 0-1.225.387-3.146 1.754-4.523.921-.926 1.803-1.172 2.621-1.172.857 0 1.407.273 1.738.63.447.479.543 1.069.543 1.537 0 .419-.096 1.11-.738 1.754-.752.749-2.152.938-3.396.938-.359 0-.705-.016-1.025-.031a5.442 5.442 0 00-.109 1.058c0 .744.251 1.141.473 1.361.398.393.896.449 1.205.449.898 0 1.545-.344 2.023-.785l.21-.178.53.804zm-3.167-3.672c.877 0 1.632-.08 2.129-.457.555-.396.607-.938.607-1.205 0-.857-.579-1.167-1.221-1.167-.383 0-.94.169-1.471.761-.381.412-.811 1.129-1.006 2.053.344.015.661.015.962.015zm7.538-3.918c.144.326.204.668.204.994 0 .32-.061.615-.125.855a5.155 5.155 0 011.277-1.215c.531-.352 1.07-.582 1.667-.582.536 0 .92.2 1.142.666.146.303.209.795.209 1.117.74-1.031 1.92-1.783 2.842-1.783.514 0 .945.23 1.188.535.221.295.336.758.336 1.125 0 .344-.084.723-.131.926l-1.215 5.995h-1.246l1.18-5.862c.04-.169.098-.642.098-.799 0-.363-.137-.533-.283-.627-.198-.121-.432-.121-.5-.121-.316 0-.625.152-.908.352-.673.465-1.296 1.252-1.532 1.553l-1.114 5.505h-1.249l1.154-5.722c.12-.587.157-.855.157-1.052 0-.215-.063-.362-.157-.462-.102-.121-.243-.174-.435-.174-.344 0-.738.174-.99.315-.753.453-1.424 1.263-1.699 1.621l-1.1 5.473h-1.246l1.215-6.017c.045-.225.177-.914.177-1.256 0-.272-.05-.557-.108-.789l1.192-.571zm15.831 1.674c-.846-.533-1.491-.601-1.844-.601-.594 0-1.037.132-1.304.336-.183.115-.463.394-.463.957 0 .251.073.421.137.546.144.233.468.438.708.543l.99.431c.479.188.939.415 1.273.899.197.278.367.678.367 1.221a2.6 2.6 0 01-1.072 2.129c-.695.526-1.529.693-2.33.693-1.165 0-2.039-.355-2.691-.781l.492-1.001c.688.489 1.5.772 2.328.772.581 0 1.168-.15 1.491-.451.247-.23.393-.625.393-.99 0-.738-.378-1.053-.974-1.329l-.924-.43c-.172-.079-.701-.333-1.016-.645a1.881 1.881 0 01-.516-1.335c0-.646.251-1.461 1.049-2.004.547-.367 1.34-.582 2.137-.582 1.221 0 1.936.403 2.259.615l-.49 1.007zm10.411-4.589c.891 0 1.867.05 2.649.864.526.537.685 1.184.685 1.898 0 .857-.261 2.304-1.531 3.352-.533.435-1.266.832-2.86.832h-1.908l-.938 4.603h-1.304l2.338-11.549h2.869zm-.915 5.828c.982 0 1.482-.242 1.981-.746.272-.291.851-.961.851-2.087 0-.7-.24-1.09-.42-1.278-.49-.535-1.43-.559-1.92-.559h-1.383l-.947 4.67h1.838zm12.04-2.844l-1.178 5.906c-.035.152-.162.842-.162 1.119 0 .23.053.547.363.969l-.967.837c-.195-.187-.399-.47-.479-.722a3.146 3.146 0 01-.116-1.132c-.27.358-.656.757-1.046 1.063-.499.363-1.171.719-1.99.719-.612 0-1.019-.189-1.224-.383-.398-.367-.451-.942-.451-1.293 0-.451.068-.916.137-1.23l1.135-5.602 1.291-.252-1.123 5.555c-.146.723-.146 1.023-.146 1.166 0 .211.021.567.227.746.155.156.406.173.521.173.71 0 1.377-.478 1.587-.65.415-.315.882-.8 1.258-1.487l1.054-5.25 1.309-.252zm4.095.199c-.082.415-.263 1.063-.387 1.551.674-1.014 1.836-1.766 2.903-1.766 1.454 0 2.158 1.021 2.158 2.775 0 2.004-.771 3.818-1.856 4.92a3.67 3.67 0 01-2.563 1.08c-.997 0-2.221-.263-3.071-1.025.083-.268.226-.84.304-1.265l1.457-7.21a7.998 7.998 0 00.158-1.621c0-.367-.031-.707-.09-.947l1.315-.535c.07.252.114.598.114.966 0 .554-.078 1.228-.225 1.942l-.217 1.135zm-1.427 6.951c.424.371.926.505 1.684.505.588 0 1.352-.399 1.722-.845.841-1.011 1.328-2.763 1.328-4.045 0-.984-.416-1.576-1.299-1.576-.843 0-1.72.676-2.616 1.888l-.819 4.073zm10.738-10.994c.078.383.11.748.11 1.094 0 .578-.131 1.383-.235 1.965l-1.527 7.502c-.075.367-.075.545-.075.598 0 .104.019.216.075.309.08.096.232.096.307.096.115 0 .193-.021.258-.029l.078.85a2.28 2.28 0 01-.943.191c-.303 0-.649-.055-.877-.326-.188-.232-.203-.53-.203-.749 0-.204.027-.394.078-.646l1.564-7.795a9.393 9.393 0 00.174-1.551c0-.352-.029-.657-.113-.973l1.329-.536zm2.015 12.409h-1.248l1.688-8.366 1.279-.199-1.719 8.565zm1.561-9.948c-.525 0-.978-.459-.978-1.01 0-.559.452-1.042.978-1.042s.973.468.973 1.031c0 .551-.448 1.021-.973 1.021zm7.262 3.096a2.481 2.481 0 00-1.619-.587c-.227 0-1.057.083-1.688.936-.338.457-.563 1.099-.746 1.683-.175.632-.359 1.512-.359 2.24 0 .34.037.795.264 1.131s.637.604 1.234.604c.648 0 1.369-.336 1.895-.908l.516.845c-1.078.968-1.988 1.104-2.656 1.104-.92 0-1.514-.221-1.977-.75-.484-.559-.626-1.23-.626-2.1 0-1.057.288-2.061.61-2.833.525-1.271 1.184-1.903 1.43-2.14.474-.418 1.262-.953 2.383-.953.572 0 1.282.109 1.935.697l-.596 1.031zm6.363 7.22a2.106 2.106 0 01-.6-1.83c-.23.473-.6.891-1.141 1.221a3.166 3.166 0 01-1.557.436c-.552 0-1.02-.167-1.383-.635-.32-.427-.595-1.1-.595-2.021 0-1.276.447-3.385 1.679-4.705.619-.662 1.677-1.414 3.192-1.414 1.198 0 1.909.441 2.223.682-.263.979-.313 1.238-.415 1.758l-.695 3.482c-.072.402-.146.768-.146 1.104 0 .409.111.777.422 1.115l-.984.807zm.426-7.656c-.156-.104-.451-.23-1.01-.23-.877 0-1.641.367-2.256 1.21-.914 1.203-1.123 2.913-1.123 3.863 0 .286.02.794.271 1.136a.96.96 0 00.783.384c.652 0 1.131-.352 1.432-.63.42-.377.768-.789 1.045-1.387l.858-4.346zm7.058-.103h-1.726l-.989 4.916a4.88 4.88 0 00-.115.936c0 .263.053.426.131.547.158.215.416.246.674.246.289 0 .557-.031.831-.163v.842a3.558 3.558 0 01-1.42.334c-.61 0-.94-.171-1.136-.35-.32-.325-.352-.826-.352-1.114 0-.264.078-.857.12-1.131l1.01-5.063h-1.036l.173-.989h1.058c.289-1.169.363-1.493.557-2.126l1.394-.305c-.351 1.047-.546 1.826-.651 2.431h1.973l-.496.989zm1.545 7.391h-1.241l1.694-8.366 1.271-.199-1.724 8.565zm1.573-9.948c-.525 0-.979-.459-.979-1.01 0-.559.453-1.042.979-1.042.532 0 .974.468.974 1.031-.001.551-.442 1.021-.974 1.021zm6.791 9.038c-.947.915-1.989 1.104-2.772 1.104-.968 0-1.593-.398-1.962-.85-.567-.696-.652-1.658-.652-2.246 0-1.716.594-3.313 1.516-4.355a3.735 3.735 0 012.887-1.324c.994 0 1.6.346 1.981.79.573.655.705 1.508.705 2.265-.001 1.909-.69 3.613-1.703 4.616zm-.086-6.132c-.236-.262-.637-.461-1.113-.461-.422 0-1.248.094-1.921 1.073-.699 1.024-.888 2.581-.888 3.648 0 .421.041 1.042.371 1.446.359.425.838.459 1.127.459.709 0 1.42-.297 2.009-1.23.636-1.013.836-2.411.836-3.453-.001-.519-.038-1.058-.421-1.482zm5.59-1.592c.063.147.194.543.194 1.006 0 .393-.08.723-.111.844.689-1.029 1.898-1.797 3.076-1.797.464 0 .863.109 1.174.426.348.379.426.867.426 1.25 0 .244-.031.423-.053.533l-1.293 6.372h-1.236l1.146-5.68c.063-.3.122-.667.122-.897 0-.207 0-.465-.201-.647a.793.793 0 00-.567-.204c-.362 0-.741.156-1.082.356a6.453 6.453 0 00-1.688 1.6l-1.104 5.473h-1.247l1.211-5.995c.078-.377.183-.803.183-1.293 0-.257-.03-.503-.108-.773l1.158-.574zm11.853 1.674c-.852-.533-1.488-.601-1.835-.601-.599 0-1.04.132-1.32.336-.168.115-.451.394-.451.957 0 .251.073.421.136.546.147.233.463.438.705.543l.988.431c.475.188.941.415 1.277.899.195.278.369.678.369 1.221 0 .611-.205 1.481-1.072 2.129-.705.526-1.531.693-2.33.693-1.168 0-2.041-.355-2.698-.781l.495-1.001c.688.489 1.504.772 2.33.772.582 0 1.172-.15 1.488-.451.252-.23.404-.625.404-.99 0-.738-.395-1.053-.979-1.329l-.926-.43c-.184-.079-.699-.333-1.025-.645a1.898 1.898 0 01-.506-1.335c0-.646.248-1.461 1.047-2.004.542-.367 1.341-.582 2.146-.582 1.215 0 1.924.403 2.252.615l-.495 1.007z" fill="#231F20"/><g fill="#231F20"><path d="M123.736 50.152l-.144-.466-.146-.461-.172-.395-.194-.453-.204-.376-.258-.349-.283-.369-.287-.338-.315-.317-.341-.345-.374-.287-.407-.224-.392-.269-.429-.192-.43-.204-.43-.114-.489-.134-.424-.121-.54-.082-.492-.1-.54-.05-.58-.056h-1.09l-.567.056-.57.05-.574.1-.566.082-.548.173-.579.113-.535.175-.519.17-.482.197-.55.206-.481.279-.498.289-.481.288-.483.317-.518.338-.43.369-.458.349-.457.427-.402.402-.4.455-.429.431-.338.518-.346.483-.282.427-.229.428-.257.311-.18.294-.114.256-.109.142-.056.088-.033.057-.058.143-.144.54-.255.86-.346 1.147-.023.065-.237 1.25-.17 1.235-.025 1.136v1.062l.025.49.12.456.138.433.149.452.195.46.226.407.234.368.259.367.312.318.348.347.339.279.375.284.426.238.402.198.406.256.396.167.427.12.427.108.514.089.487.089.512.084.575.089.544.032h1.147l.512-.032.574-.089.602-.084.521-.089.566-.115.542-.108.578-.173.48-.168.52-.175.519-.231.484-.257.518-.231.482-.279.513-.347.485-.318.434-.367.511-.368.437-.407.426-.46.399-.452.401-.489.37-.484.377-.487.309-.484.338-.542.292-.511.234-.58.252-.629.261-.605.196-.624.2-.626v-.065l.292-1.317.164-1.26.058-1.144-.058-1.062-.082-.478zm-6.546 5.322l-.171.508-.237.571-.252.57-.233.573-.145.291-.142.256-.166.295-.175.217-.18.294-.195.247-.2.23-.2.262-.203.192-.195.205-.265.202-.196.174-.255.173-.232.169-.258.109-.285.113-.236.091-.272.123-.259.073-.289.064-.315.028-.288.029-.342.06h-.576l-.292-.06-.279-.029-.293-.028-.217-.064-.257-.073-.259-.123-.2-.091-.325-.222-.339-.342-.226-.376-.173-.397-.112-.492-.087-.541-.088-.512v-1.63l.061-.084.054-.263.142-.308.121-.484.026-.065.14-.565.199-.605.229-.573.287-.571.143-.284.147-.266.173-.286.162-.257.182-.279.194-.201.149-.231.223-.196.144-.263.2-.206.226-.196.232-.196.257-.171.232-.18.254-.106.284-.118.286-.095.268-.133.277-.058.287-.055.314-.032.289-.06.315-.021h.564l.347.021.233.06.285.032.261.055.253.058.225.133.203.095.348.225.312.352.29.392.164.468.091.428.084.48v1.663l-.057.573-.086.605-.107.565v.064zm9.326 10.384h6.004l2.771-10.449 1.551-5.751h5.006l1.257-4.746h-16.017l-1.205 4.746h5.006l-1.547 5.751zm18.705.079l2.89-10.87h.056l.036-.059.055-.029h.315l.025-.055.058-.031h.089l.03-.049.089-.04.075-.024.092-.06h.031l.05-.081.114-.029h.09l.031.081.053.113.029.089.031.086.058.029.024.059.053.063.037.05.056.084.058.09.061.12.025.073v.031l.058.062.025.031v.032l.086.137.122.142.078.232.09.109.084.177.117.193.082.203.091.169.165.432.203.461.198.453.171.492.121.479.197.55.171.564.113.582.113.573.182.567.109.575.063.605v.62l-.063.634-.025.665v.62h6.177v-.285l.034-.335.047-.319v-.629l-.047-.321-.034-.304v-.627l-.056-.324-.093-.377v-.37l-.024-.284-.032-.372-.057-.312-.031-.379-.079-.562-.172-.577-.175-.575-.116-.574-.173-.549-.139-.566-.169-.572-.171-.565-.147-.519-.225-.573-.232-.55-.287-.534-.282-.493-.288-.516-.345-.489-.29-.513.177-.05.201-.081.173-.087.197-.118.202-.144.2-.09.221-.111.21-.115.198-.113.196-.151.205-.105.2-.181.195-.105.236-.175.195-.169.205-.114.199-.123.207-.107.193-.175.168-.171.209-.115.191-.168.17-.175.209-.11.168-.12.203-.166.174-.176.197-.142.17-.153.139-.127.203-.181.172-.113.089-.089.114-.115.082-.083.088-.08.082-.091.117-.115.084-.081.089-.087.03-.09.059-.11.075-.094.069-.079.076-.026.149-.064.087-.081.06-.061.17-.165.113-.203.145-.205.141-.163.142-.173.116-.174.11-.145.173-.173h-7.151l-.255.286-.227.256-.262.236-.287.255-.195.203-.291.205-.282.248-.294.141-.164.086-.144.09-.172.11-.175.173-.114.091-.113.08-.172.114-.113.084-.176.089-.162.086-.172.067-.153.077-.138.079-.109.112-.182.063-.113.031-.113.09-.171.082-.197.123-.121.082-.171.05-.112.031-.141.029-.148.056-.135.089-.151.11-.224.031-.119.056-.171.027-.115.063-.108.08-.175.03 1.198-4.291h-5.975l-5.638 20.943zm21.008 0l4.317-16.192h3.147l.172.031h.201l.172.057.194.025h.127l.164.024.287.058.259.091.205.082.163.153.142.135.173.143.179.2.137.147.085.172.088.113.084.115.032.163v.118l.052.182.026.188v.211l-.026.106-.052.147v.201l-.032.111-.084.093v.361l-.109.407-.201.373-.179.392-.199.376-.2.288-.252.256-.291.283-.287.156-.164.137-.127.086-.164.056-.202.086-.137.091-.177.079-.203.028-.17.057-.178.033-.104.058-.169.023-.203.063h-.18l-.137.029h-1.09l-.114-.029-.174-.063h-.227l-.112-.081-.166-.033h-.129l-.076-.057-.142-.028-.121-.024-.11-.055-1.199 4.632.168.05.194.095.21.078.169.064h.168l.206.025.194.023h.406l.228.065.202.026h1.545l.49-.026.537-.065.489-.048.457-.094.489-.143.45-.106.403-.118.404-.175.4-.173.377-.193.417-.204.348-.226.423-.264.38-.255.311-.224.323-.291.335-.284.32-.341.331-.315.3-.313.289-.349.221-.317.257-.37.206-.365.195-.38.174-.374.205-.4.164-.389.146-.432.141-.404.117-.407v-.056l.026-.051.052-.091v-.142l.031-.021.058-.031v-.429l.089-.031.018-.061v-.106l.041-.661v-.685l-.041-.655-.107-.612-.141-.561-.196-.582-.234-.57-.34-.544-.203-.283-.195-.259-.254-.225-.295-.257-.287-.208-.317-.205-.306-.167-.372-.113-.428-.113-.407-.141-.458-.056-.489-.089-.512-.093-.488-.05-.573-.03H165.85l-5.633 20.943zm24.863-.079h1.947l.109-.064h.173l.212-.025.156-.062.174-.032.201-.023.172-.056h.151l.17-.033.172-.055.197-.027.168-.054.205-.058.2-.052.204-.09.254-.094.226-.051.255-.084.226-.145.274-.118.276-.112.249-.174.234-.114.258-.118.231-.169.258-.164.226-.18.258-.147.267-.192.225-.174.25-.202.232-.196.256-.265.199-.255.26-.227.196-.284.207-.284.201-.287.195-.286.346-.664.316-.738.287-.806.201-.835.166-.82.114-.804.067-.764v-.089l-.067-.665-.114-.681-.197-.666-.258-.623-.31-.574-.205-.294-.26-.223-.254-.285-.228-.251-.288-.232-.291-.196-.336-.174-.312-.175-.373-.112-.381-.121-.369-.082-.399-.091-.4-.058-.463-.024-.447-.025h-.606l-.172.025-.165.024h-.782l-.115.058-.113.039h-.713l-.031.052-.082.082h-.392l-.065.039-.036.025h-.368l-.03.057-.059.032h-.283l-1.259 4.713h.119l.051-.055.032-.031h.081l.119-.049.146-.04.112-.053.082-.031h.093l.103-.029.126-.052h.195l.147-.083.121-.039h.762l.257.039h.205l.2.054.201.029.166.052.144.06.168.053.289.175.258.151.196.255.171.223.148.288.085.263.09.278.031.287v.286l-.031.286-.09.295-.029.271-.171.549-.165.51-.235.493-.258.375-.11.143-.179.144-.168.141-.144.114-.166.088-.201.077-.2.067-.205.054-.172.082-.201.036-.174.074-.193.096-.175.079-.202.094-.196.025-.201.023h-.431l-.199.065h-.402l-.199.026h-2.483l1.543-5.832 2.77-10.473h-5.956l-2.824 10.473-2.832 10.473zm16.586 0l2.808-10.473 2.803-10.473h-5.978l-2.802 10.473-2.837 10.473zm6.793.079h6.002l4.348-16.192h4.987l1.261-4.751h-16.031l-1.171 4.751h4.975zm12.67-.079h11.327l.122-.064h.168l.204-.025.17-.062.141-.032.231-.023.147-.056h.169l.173-.033.142-.055.226-.027.137-.054.199-.058.233-.052.205-.09.226-.094.263-.051.22-.084.263-.145.263-.118.28-.112.225-.174.258-.114.232-.118.257-.169.264-.164.219-.18.263-.147.233-.192.252-.174.231-.202.252-.196.262-.265.201-.255.231-.227.197-.284.224-.284.205-.287.2-.286.31-.664.342-.738.289-.806.2-.835.173-.82.116-.804.023-.764v-.089l-.023-.665-.116-.681-.227-.666-.224-.623-.348-.574-.205-.294-.221-.223-.263-.285-.231-.251-.279-.232-.289-.196-.342-.174-.325-.175-.363-.112-.369-.121-.379-.082-.404-.091-.394-.058-.453-.024-.463-.025h-.599l-.168.025-.18.024h-.772l-.115.058-.143.039h-.678l-.038.052-.079.082h-.403l-.058.039-.026.025h-.374l-.053.057-.031.032h-.285l-1.262 4.713h.11l.033-.055.057-.031h.085l.109-.049.122-.04.141-.053.052-.031h.092l.146-.029.115-.052h.2l.111-.083.147-.039h.763l.241.039h.195l.226.054.206.029.136.052.174.06.173.053.284.175.232.151.231.255.142.223.173.288.083.263.085.278.027.287v.286l-.027.286-.085.295-.062.271-.141.549-.168.51-.258.493-.232.375-.115.143-.169.144-.173.141-.174.114-.136.088-.206.077-.226.067-.195.054-.147.082-.231.036-.141.074-.201.096-.173.079-.195.094-.206.025-.225.023h-.405l-.206.065h-.394l-.199.026h-2.524l1.551-5.832 2.803-10.473h-5.98l-2.807 10.473zm25.941 0l2.814-10.473 2.809-10.473h-5.955l-2.833 10.473-2.835 10.473zm13.809-12.137l-.635 2.347h7.893l.632-2.347.63-2.347h-7.899zM144.882 77.474l.204.023.165.09h.116l.17.026.202.056.197.028.175.056h.173l.112.032.114.031h.148l1.168-4.515-.164-.06-.204-.037-.198-.021-.232-.071-.234-.018-.226-.094-.204-.05-.253-.029h-.201l-.252-.025-.23-.062h-2.067l-.685.062-.654.054-.603.081-.654.152-.633.118-.602.16-.573.201-.572.205-.575.187-.565.271-.573.228-.549.287-.514.345-.483.315-.492.31-.453.428-.463.4-.451.399-.405.46-.395.455-.377.49-.315.46-.029.056-.312.426-.284.49-.315.49-.263.534-.279.573-.235.521-.257.569-.201.574-.175.572v.09l-.022.115-.061.08v.431l-.025.02-.056.09v.379l-.115.889-.086.904.057.893.061.858.139.836.196.8.288.82.37.773.203.378.263.37.28.313.316.293.369.281.377.258.428.199.455.2.46.166.515.128.542.112.574.079.6.096.634.077.655.032h1.056l.173-.032.201-.058h.144l.176-.019h1.54l.287-.033.255-.063.286-.025.255-.054.291-.026.226-.065.259-.021.233-.029 1.288-4.639h-.06l-.091.032-.052.078h-.29l-.08.053-.083.031h-.267l-.143.062-.135.034-.124.025-.165.054h-.572l-.117.032-.118.088h-.541l-.083.062-.113.021h-.572l-.116-.021-.144-.062h-.773l-.171-.03-.144-.09-.173-.054-.172-.025-.106-.034-.18-.062-.198-.031-.112-.053-.289-.143-.287-.174-.289-.193-.25-.195-.204-.274-.225-.278-.229-.314-.148-.348-.143-.307-.139-.43-.146-.432-.029-.547.029-.509.083-.573.143-.626.115-.663.235-.663.279-.689.351-.588.308-.576.172-.293.201-.256.202-.278.196-.265.257-.225.261-.256.232-.234.289-.203.281-.223.288-.205.278-.133.351-.236.286-.143.315-.167.319-.122.337-.136.311-.063.346-.056.318-.084.368-.026.372-.063.374-.027.402-.023h1.234z"/><path d="M270.777 65.858l1.285-4.641H263.8l1.975-7.496 1.08-4.063h7.731l1.278-4.746h-13.7l-2.377 8.809-3.266 12.137zM163.11 73.38l-.172.081-.206.119-.195.082-.174.094-.149.03-.196.081-.227.114-.147.14-.199.088-.254.116-.203.114-.26.114-.137.083-.231.14-.2.122-.147.107-.223.18-.235.115-.2.113-.253.17-.202.111-.196.171-.259.2-.147.144-.226.119-.231.198-.197.17-.254.146-.206.144-.258.14-.199.228-.143.12-.143.089-.114.083-.173.107-.117.09-.163.089-.12.06-.082.137-.086.082-.18.114-.111.117-.088.115-.085.086-.052.08-.142.089-.124.113-.1.093 1.51-5.638h-5.984l-5.643 20.946h6.016l2.168-8.248.122-.053.173-.14.114-.112.113-.12.084-.168.117-.11.139-.154.117-.141.032-.053.083-.031.059-.058.037-.026.023-.031.053-.092.031-.051.049-.031.153-.09.137-.084.089-.09.053-.073.09-.062.14-.142.065-.09.084-.055.168-.167.199-.178.264-.174.195-.131.233-.183.227-.196.196-.205.174-.163.143-.1.147-.08.052-.089.084-.046.09-.064.115-.079.142-.096.122-.058.073-.077.116-.138.12-.064.138-.085.09-.054.117-.033.113-.11.109-.09.17-.139.262-.118.2-.115.201-.175.167-.11.229-.172.206-.118.223-.111.147-.173.2-.114.231-.142.137-.112.177-.089.202-.108.256-.098.201-.083-4.085 14.942h6.001l5.603-20.946zm23.978-.031l-.203-.048-.199-.037-.252-.06-.209-.021-.229-.089-.199-.031-.253-.063h-.206l-.257-.022-.231-.057h-2.057l-.689.057-.657.085-.601.049-.66.152-.622.116-.607.171-.572.205-.572.192-.573.197-.573.263-.57.228-.544.282-.516.352-.478.313-.521.347-.431.398-.447.392-.468.406-.397.461-.402.461-.373.477-.342.461-.315.481-.288.492-.313.486-.258.544-.284.572-.268.509-.22.576-.207.579-.164.572v.084l-.06.14-.028.055v.43l-.025.027-.055.084v.379l-.119.889-.082.914.018.884.096.862.142.826.205.804.279.826.368.767.203.379.227.378.29.311.342.277.368.292.372.263.432.204.461.196.461.174.508.115.543.105.578.096.596.077.628.095.659.02h1.056l.149-.02.226-.037h.141l.176-.058h1.548l.28-.026.258-.051.283-.033.237-.063.278-.025.264-.033.257-.047.224-.031 1.291-4.639h-.055l-.088.057-.089.053h-.284l-.053.062-.088.034h-.261l-.176.055-.106.024-.12.061-.169.029h-.571l-.112.03-.142.083h-.52l-.09.054-.11.026h-.573l-.145-.026-.114-.054h-.766l-.182-.021-.133-.092-.176-.029-.172-.061-.111-.024-.179-.055-.195-.034-.121-.062-.279-.137-.283-.169-.289-.199-.26-.2-.199-.268-.251-.279-.205-.319-.142-.343-.146-.316-.149-.393-.136-.469-.032-.536.032-.516.081-.573.123-.637.137-.646.232-.631.284-.722.347-.598.309-.573.174-.284.205-.256.194-.288.204-.23.254-.256.233-.228.252-.264.291-.203.288-.197.282-.222.291-.146.307-.193.287-.181.353-.168.298-.109.356-.116.312-.089.351-.058.306-.088.366-.028.375-.023.375-.059.399-.024h1.354l.192.024.174.082h.111l.173.028.2.056.205.032.173.058h.165l.115.024.114.065h.148l1.168-4.552zm16.856.031h-16.02l-1.182 4.749h4.985l-4.392 16.197h6.019l4.343-16.197h4.975zm6.432 8.724l-.634 2.339h7.902l.627-2.339.624-2.342h-7.893z"/><path d="M209.262 82.104l.851-3.146.237-.91h7.72l1.287-4.747h-13.711l-1.506 5.657-.859 3.146-3.259 12.138h14.241l1.291-4.639h-8.275zm30.731-8.755l-.116.082-.115.149-.168.113-.121.113-.116.092-.141.105-.144.09-.141.085-.136.178-.148.116-.116.11-.174.171-.115.087-.11.078-.173.119-.123.171-.166.142-.19.174-.21.204-.168.171-.174.166-.204.227-.197.204-.257.224-.088.06-.06.146-.136.111-.099.111-.043.09-.089.116-.142.089-.154.081-.072.089-.096.108-.083.146-.079.125-.089.082-.116.116-.084.081-.084.083-.232.289-.201.224-.26.296-.221.293-.228.275-.204.251-.195.295-.179.225-.194.285-.211.264-.174.286-.137.278-.168.264-.115.191-.147.207-.137.167h-.089v-.167l-.059-.207-.031-.254v-.288l-.025-.222-.058-.232-.032-.229-.049-.203-.031-.278-.09-.293-.089-.257-.083-.283-.032-.279-.053-.294-.11-.235-.094-.281-.08-.231-.053-.219-.146-.271-.09-.278-.025-.205-.032-.217-.142-.271-.106-.279-.037-.088-.089-.114-.079-.123-.084-.133-.031-.083-.059-.12-.087-.116-.033-.111-.048-.083-.032-.15-.089-.113-.084-.174-.031-.058-.053-.087-.062-.078-.053-.087v-.033l-.031-.084-.053-.054v-.091l-.031-.019-.065-.033v-.062l-.015-.021-.037-.097-.053-.05-.031-.031v-.033l-.059-.052-.084-.039v-.051l-.03-.022-.032-.083-.053-.031-.031-.061v-.02l-.047-.061-.037-.032v-.081l-.052-.032-.06-.061v-.025l-.062-.088-.027-.057h-5.979l-5.637 20.943h6.016l3.25-12.3.148.211.2.241.142.232.147.283.084.266.115.225.111.257.115.285.063.294.084.278.08.317.063.289.052.251.033.29.051.252.027.295.063.288.058.311.062.373.027.285v1.541l-.027.29-.083.341v1.172h3.711l.285-.546.289-.569.258-.519.283-.537.227-.401.264-.461.22-.422.268-.431.279-.405.295-.399.231-.368.279-.38.258-.294.253-.357.23-.327.251-.277.154-.145.173-.197.169-.176.167-.114.122-.163.174-.146.109-.181.106-.168.18-.089.115-.111.115-.115.168-.117.154-.089.115-.13.11-.121.08-.112-3.266 12.3h5.957l5.637-20.943zm27.888 5.609l-1.283 4.808-2.829 10.476h6.031l2.776-10.476 1.289-4.808 1.521-5.657h-5.954zm-3.686 8.925l.287-.826.197-.799.178-.837.105-.804.032-.763v-.088l-.032-.663-.105-.685-.23-.651-.232-.643-.348-.558-.194-.289-.232-.229-.259-.286-.225-.271-.278-.239-.291-.205-.203-.089-.143-.056-.321-.179-.368-.103-.373-.146-.363-.09-.4-.059-.409-.054-.464-.03-.458-.051h-.593l-.168.051-.179.03h-.773l-.111.054-.115.029h-.711l-.025.03-.09.09h-.405l-.046.051-.043.032h-.369l-.026.063-.062.023h-.281l-.089.315-1.167 4.381h.105l.033-.031.057-.026h.084l.116-.057.11-.037.153-.053.049-.032h.093l.137-.059.109-.021h.21l.113-.093.146-.034h.768l.226.034h.231l.195.062.211.031.168.021.141.091.179.053.284.151.251.163.207.264.137.226.172.294.09.247.084.29.033.283v.283l-.033.29-.084.284-.031.295-.174.511-.168.54-.233.485-.251.367-.116.126-.168.169-.179.12-.141.137-.168.066-.211.076-.195.085-.231.068-.133.048-.204.057-.178.09-.196.089-.173.054-.2.089-.205.056-.199.029h-.427l-.199.05h-.395l-.209.033h-2.514l1.54-5.837 1.288-4.808 1.52-5.657h-5.984l-1.511 5.657-1.287 4.808-2.828 10.476h11.326l.112-.06h.172l.201-.039.168-.057.178-.018.204-.059.133-.032h.173l.179-.032.174-.052.195-.021.142-.063.231-.088.199-.033.199-.079.227-.089.264-.079.252-.068.232-.142.262-.118.273-.107.237-.17.252-.12.232-.131.258-.152.263-.163.231-.175.252-.175.226-.203.258-.143.233-.236.261-.191.248-.235.205-.246.226-.232.2-.28.231-.295.194-.289.206-.278.316-.662z"/></g><path fill="#231F20" d="M85.537 87.094l-3.258-4.499-.503.304 3.23 4.469-16.961 10.261-1.14-1.553v-5.984l-.086-.174-.048-.02-7.026-9.629 1.737-1.047-.348-.475-1.733 1.046-.616-.843 1.733-1.043-.35-.477-1.723 1.039-1.039-1.414 1.723-1.042-.353-.482-1.725 1.04-1.708-2.347V71.74l2.678-1.596v-.27l.138.188 1.215-.725-.37-.503-3.845 2.316L43.73 55.578 60.643 45.37l10.698 14.692.511-.307-10.868-14.904-.203-.144-.198.032-17.391 10.496-.196.079-.12.263v2.074l-.889-1.223-.195-.142-.19.053-.005-.023-17.331 10.457-.061-.021-.203.093-.114.254v6.751h.087l.027.138 1.016 1.386-.813.42-.203.09-.114.259v6.686h.087l.027.141 11.589 15.814.05.172.172.115.226-.033 1.031-.65v2.026h.019l.037.173 11.646 15.859.027.068.166.116.232-.023 17.423-10.505.196-.029.086-.266v-2.203l.85 1.158.034.119.175.105.224-.032 17.361-10.552.199-.021.083-.259v-6.72l-.083-.253-.208-.055zm-19.419 2.912L49.109 100.26 37.75 84.795l17.082-10.298 11.286 15.509zm.127.632v6.041l-16.77 10.104v-6.048l16.77-10.097zm-30.013-7.483l16.882-10.108.008 1.801-15.742 9.501-.197.079-.112.258v4.027l-.855.512v-6.032l.029-.026-.013-.012zm1.494 2.603l11.09 15.119v5.643l-11.09-15.123v-5.639zm5.815-29.471l11.148 15.208.008 2.396-.919.557-.008-1.943-.083-.174-.168-.113h-.007L43.54 58.554v-2.267zm-1.883.664L52.95 72.458 35.98 82.629 24.665 67.22l16.993-10.269zm-17.11 16.774v-5.684l11.024 15.041-.015.031v5.633L24.548 73.725zm11.063 24.096L24.548 82.708v-5.642l11.063 15.098v5.657zm.416-6.104L24.636 76.209l.729-.368 10.192 13.881.047.106.037.119.172.113.226-.028 1.031-.616v1.647l-1.043.654zm1.157 1.688l-.112.252v4.037l-.798.507v-5.953l.934-.568.896 1.229-.722.424-.198.072zm11.588 22.049l-11.046-15.055v-5.644l11.046 15.052v5.647zm.315-6.205L37.741 93.793l.708-.425 10.31 14.041.043.157.166.111.232-.027 16.182-9.759.75 1.114-17.045 10.244zm17.158-3.618l-16.818 10.135v-6.019l16.818-10.11v5.994zm1.51-1.847l-.85-1.169v-3.488l-.035-.092-.051-.078-.996-1.328.879-.527.117-.036.022-.068.914 1.257v5.529zm17.422-9.833l-16.773 10.165v-6.03l16.773-10.108v5.973z"/><path d="M75.326 57.665L58.318 67.896l11.306 15.421 16.87-10.205zM70.21 84.57v5.344l16.6-10.067v-5.286zM58.022 74.503l10.726 14.626v-4.654L58.022 69.874z" fill="#EE3425"/></svg>