<svg width="1192" height="274" viewBox="0 0 1192 274" fill="none" xmlns="http://www.w3.org/2000/svg">
<path d="M33.8 258.8V19.3999H65.6V258.8H33.8ZM248.6 258.8H205.5L95.1 166.8C84.2 157.7 78.7 147.3 78.7 135.7C78.7 126.6 83.6 117.8 93.4 109.4L194.6 19.4999H236L123.2 118.3C122.5 119 121.3 120 119.6 121.4C117.9 122.8 116.6 123.8 115.8 124.7C115 125.5 114 126.5 112.9 127.8C111.8 129.1 111 130.4 110.5 131.7C110 133.1 109.8 134.4 109.8 135.8C109.8 141.5 115.2 148.7 125.9 157.3L248.6 258.8Z" fill="#00A460"/>
<path d="M429.6 258.8H286.6C280.5 258.8 275.3 257 271.2 253.3C267.1 249.7 265.1 244 265.1 236.2C265.1 225.7 269.1 217.4 277.1 211.2L392 126.1C398.8 121.1 403.3 115.7 405.5 110C407.7 104.3 408.8 96.1999 408.8 85.6999C408.8 71.7999 406.9 61.6999 403 55.2999C399.1 48.8999 390.6 45.6999 377.4 45.6999H282V19.3999H387C406.8 19.3999 420.9 24.3999 429.1 34.2999C437.3 44.1999 441.4 60.2999 441.4 82.6999C441.4 98.3999 439.5 110.9 435.6 120C431.7 129.1 424 138 412.4 146.7L306.4 226C303.7 228.3 302.3 229.8 302.3 230.5C302.3 232.1 303.3 232.9 305.4 232.9H429.9V258.8H429.6Z" fill="#00A460"/>
<path d="M591.4 258.8H559.6V45.3999H462.8V19.3999H688.1V45.3999H591.3V258.8H591.4Z" fill="#00A460"/>
<path d="M896.4 258.8H746.9C724.6 258.8 713.4 247.5 713.4 224.9V53.2999C713.4 40.9999 716.3 32.2999 722 27.0999C727.7 21.9999 736 19.3999 747 19.3999H895V45.3999H761C754.6 45.3999 750.4 46.4999 748.3 48.7999C746.3 51.0999 745.2 55.2999 745.2 61.4999V123.4H891.6V149.4H745.2V216.4C745.2 222.5 746.2 226.8 748.3 229.2C750.4 231.6 754.6 232.8 761 232.8H896.4V258.8Z" fill="#00A460"/>
<path d="M1122.7 258.8H1157.3C1139.8 233.5 1091 170.1 1080.1 153.7C1072.4 142 1072.4 135.4 1079.9 124.3C1088.9 111.3 1147.1 30.2999 1154.3 19.3999H1120.2C1102.2 46.8999 1062.3 103.1 1055.7 112.7C1041.3 133.8 1044.6 148.4 1059.1 170.2C1068.1 184.1 1102.1 228.9 1122.7 258.8Z" fill="#00A460"/>
<path d="M958 258.8C978.6 229 1013.6 184.1 1022.6 170.3C1037.1 148.5 1040.4 133.9 1026 112.8C1019.4 103.2 979.5 46.9 961.5 19.5H927.4C934.6 30.4 992.7 111.4 1001.8 124.4C1009.3 135.5 1009.3 142.1 1001.6 153.8C990.7 170.2 941 233.6 923.4 258.9H958" fill="#00A460"/>
</svg>
