<svg xmlns="http://www.w3.org/2000/svg" viewBox="0 0 231.38 42.59"><defs><style>.cls-1{fill:#3a3a39;}.cls-2{fill:#009ee3;}</style></defs><g id="Layer_2" data-name="Layer 2"><g id="Layer_1-2" data-name="Layer 1"><path class="cls-1" d="M6.6,42.59h6.66V26.31A10.44,10.44,0,0,1,23.6,17.13l13.84,0a3.72,3.72,0,0,1,3.9,3.53V42.59H48V20.68A10.43,10.43,0,0,0,37.45,10.45l-13.85,0h-.1a17,17,0,0,0-10.24,3.48V10.47H0v6.66H6.6Z"/><path class="cls-1" d="M176.19,10.48H154.9A9.48,9.48,0,0,0,145.43,20V31.7a10.9,10.9,0,0,0,10.9,10.89h28.61V35.93H156.33a4.23,4.23,0,0,1-4.23-4.23v-1h33.55V20A9.47,9.47,0,0,0,176.19,10.48ZM179,24H152.1V20a2.8,2.8,0,0,1,2.8-2.8h21.29A2.81,2.81,0,0,1,179,20Z"/><path class="cls-1" d="M87.1,33a3,3,0,0,1-3,3h0l-20.37,0a4.43,4.43,0,0,1-4.43-4.43v-21H52.67v21a11.1,11.1,0,0,0,11.08,11.1H84.13A9.61,9.61,0,0,0,93.76,33V10.47H87.1Z"/><path class="cls-1" d="M222.08,24H200.57a2.64,2.64,0,0,1-2.64-2.64v-1.6a2.64,2.64,0,0,1,2.64-2.64h22.92V10.44H200.57a9.32,9.32,0,0,0-9.31,9.3v1.6a9.33,9.33,0,0,0,9.31,9.31h21.51a2.64,2.64,0,0,1,0,5.28H191.8v6.66h30.28a9.31,9.31,0,0,0,0-18.61Z"/><path class="cls-1" d="M130.31,10.46H108.88a9.28,9.28,0,0,0-2.85.44V0H99.37V20.73h0v10.9a11,11,0,0,0,10.94,11h20a9.49,9.49,0,0,0,9.51-9.51V20A9.52,9.52,0,0,0,130.31,10.46Zm2.85,22.62a2.88,2.88,0,0,1-.83,2,2.84,2.84,0,0,1-2,.83h0l-20,0A4.29,4.29,0,0,1,106,31.63V20a2.86,2.86,0,0,1,2.85-2.85h21.43A2.86,2.86,0,0,1,133.16,20Z"/><rect class="cls-2" x="66.35" y="20.94" width="13.73" height="6.82"/><rect class="cls-2" x="66.35" y="10.47" width="13.73" height="6.82"/><rect class="cls-2" x="66.35" width="13.73" height="6.82"/></g></g></svg>