<?xml version="1.0" encoding="utf-8"?>
<!-- Generator: Adobe Illustrator 16.0.0, SVG Export Plug-In . SVG Version: 6.00 Build 0)  -->
<!DOCTYPE svg PUBLIC "-//W3C//DTD SVG 1.1//EN" "http://www.w3.org/Graphics/SVG/1.1/DTD/svg11.dtd">
<svg version="1.1" id="Layer_1" xmlns="http://www.w3.org/2000/svg" xmlns:xlink="http://www.w3.org/1999/xlink" x="0px" y="0px"
	 width="300px" height="160px" viewBox="0 0 300 160" enable-background="new 0 0 300 160" xml:space="preserve">
<g>
	<g>
		<path fill="#231F20" d="M98.023,112.02c-1.121,0.926-2.215,1.041-2.939,1.041c-0.904,0-1.95-0.167-2.743-1.08
			c-0.754-0.889-0.893-2.016-0.893-2.983c0-2.372,0.809-4.881,2.148-6.37c0.551-0.593,1.65-1.508,3.57-1.508
			c1.318,0,2.1,0.521,2.582,1.04c0.734,0.807,0.91,1.833,0.91,2.862C100.658,107.499,99.892,110.469,98.023,112.02z M98.484,102.719
			c-0.394-0.371-1.019-0.527-1.484-0.527c-0.61,0-1.738,0.156-2.621,1.349c-0.936,1.296-1.498,3.604-1.498,5.693
			c0,0.554,0.051,1.392,0.509,1.999c0.303,0.383,0.845,0.758,1.756,0.758c1.07,0,1.8-0.539,2.238-0.989
			c1.199-1.283,1.835-4.402,1.835-6.146C99.22,104.369,99.158,103.316,98.484,102.719z"/>
		<path fill="#231F20" d="M104.166,104.232c0.13,0.326,0.196,0.668,0.196,0.916c0,0.246-0.028,0.608-0.073,0.865
			c0.345-0.504,0.797-0.938,1.354-1.287c0.38-0.211,0.908-0.441,1.528-0.441c0.866,0,1.279,0.419,1.461,0.63
			c0.505,0.632,0.586,1.469,0.586,2.089c0,1.178-0.349,3.203-1.407,4.553c-0.957,1.226-2.108,1.504-3.036,1.504
			c-0.753,0-1.308-0.189-1.769-0.42l-0.703,3.471l-1.301,0.258l1.936-9.52c0.151-0.684,0.167-1.093,0.167-1.324
			c0-0.252-0.036-0.473-0.114-0.721L104.166,104.232z M103.23,111.463c0.32,0.272,0.793,0.527,1.546,0.527
			c0.43,0,1.356-0.113,2.056-1.131c0.598-0.854,1.032-2.637,1.032-3.768c0-0.32-0.038-0.984-0.354-1.335
			c-0.228-0.247-0.535-0.3-0.753-0.3c-0.674,0-1.161,0.315-1.513,0.594c-0.513,0.386-0.898,0.836-1.178,1.289L103.23,111.463z"/>
		<path fill="#231F20" d="M116.637,111.822c-1.016,1.123-2.281,1.238-3.014,1.238c-0.682,0-1.481-0.1-2.116-0.85
			c-0.542-0.622-0.699-1.469-0.699-2.23c0-1.225,0.378-3.146,1.744-4.523c0.927-0.926,1.804-1.172,2.622-1.172
			c0.865,0,1.407,0.273,1.741,0.63c0.447,0.479,0.543,1.069,0.543,1.537c0,0.419-0.097,1.11-0.734,1.754
			c-0.751,0.749-2.151,0.938-3.401,0.938c-0.348,0-0.706-0.016-1.024-0.031c-0.075,0.367-0.115,0.773-0.115,1.058
			c0,0.744,0.257,1.141,0.486,1.361c0.395,0.393,0.892,0.449,1.194,0.449c0.896,0,1.551-0.344,2.03-0.785l0.205-0.178
			L116.637,111.822z M113.466,108.15c0.879,0,1.629-0.08,2.122-0.457c0.556-0.396,0.61-0.938,0.61-1.205
			c0-0.857-0.577-1.167-1.211-1.167c-0.385,0-0.942,0.169-1.476,0.761c-0.382,0.412-0.806,1.129-1.003,2.053
			C112.84,108.15,113.16,108.15,113.466,108.15z"/>
		<path fill="#231F20" d="M120.969,104.232c0.064,0.147,0.191,0.543,0.191,1.006c0,0.393-0.076,0.723-0.104,0.844
			c0.685-1.029,1.897-1.797,3.079-1.797c0.459,0,0.865,0.109,1.159,0.426c0.362,0.379,0.433,0.867,0.433,1.25
			c0,0.244-0.03,0.423-0.041,0.533l-1.292,6.372h-1.246l1.143-5.68c0.066-0.3,0.138-0.667,0.138-0.897
			c0-0.207-0.016-0.465-0.208-0.647c-0.165-0.151-0.36-0.204-0.562-0.204c-0.373,0-0.755,0.156-1.087,0.356
			c-0.485,0.299-1.148,0.858-1.694,1.6l-1.095,5.473h-1.254l1.223-5.995c0.07-0.377,0.167-0.803,0.167-1.293
			c0-0.257-0.031-0.503-0.112-0.773L120.969,104.232z"/>
		<path fill="#231F20" d="M138.396,103.117c-0.388-0.34-1.151-0.873-2.394-0.873c-0.884,0-1.393,0.283-1.571,0.383
			c-0.743,0.459-0.91,1.136-0.91,1.742c0,0.189,0.029,0.498,0.225,0.811c0.178,0.277,0.529,0.551,1.169,0.834l1.15,0.521
			c0.547,0.252,0.996,0.5,1.374,1.158c0.272,0.473,0.418,0.983,0.418,1.65c0,1.061-0.367,1.982-1.234,2.691
			c-0.704,0.574-1.722,1.025-3.261,1.025c-0.97,0-1.994-0.167-2.982-0.902l0.623-1.078c1.103,0.797,2.03,0.86,2.6,0.86
			c0.641,0,1.454-0.118,2.093-0.678c0.561-0.479,0.755-1.052,0.755-1.73c0-0.95-0.37-1.414-1.476-1.908l-0.986-0.438
			c-1.282-0.562-1.853-1.43-1.853-2.634c0-0.79,0.257-2.055,1.641-2.859c0.689-0.404,1.554-0.574,2.365-0.574
			c0.881,0,1.965,0.23,2.926,0.992L138.396,103.117z"/>
		<path fill="#231F20" d="M142.773,112.473c-0.737,1.42-1.299,2.541-2.017,3.112c-0.313,0.26-0.882,0.579-1.539,0.726l-0.29-0.895
			c0.572-0.109,1.054-0.435,1.4-0.766c0.211-0.201,0.608-0.685,1.021-1.784l-0.508,0.058c0.009-0.781-0.129-2.492-0.187-3
			l-0.656-5.351l1.305-0.272l0.545,5.363c0.062,0.574,0.047,1.096,0.047,2.088c0.511-0.926,0.682-1.331,0.887-1.771l2.674-5.495
			h1.437L142.773,112.473z"/>
		<path fill="#231F20" d="M152.359,105.906c-0.851-0.533-1.492-0.601-1.845-0.601c-0.584,0-1.036,0.132-1.309,0.336
			c-0.174,0.115-0.46,0.394-0.46,0.957c0,0.251,0.078,0.421,0.144,0.546c0.143,0.233,0.464,0.438,0.702,0.543l0.996,0.431
			c0.476,0.188,0.937,0.415,1.269,0.899c0.196,0.278,0.375,0.678,0.375,1.221c0,0.611-0.211,1.481-1.077,2.129
			c-0.701,0.526-1.533,0.693-2.33,0.693c-1.162,0-2.044-0.355-2.699-0.781l0.497-1.001c0.689,0.489,1.497,0.772,2.333,0.772
			c0.571,0,1.167-0.15,1.484-0.451c0.255-0.23,0.399-0.625,0.399-0.99c0-0.738-0.386-1.053-0.976-1.329l-0.923-0.43
			c-0.178-0.079-0.706-0.333-1.026-0.645c-0.241-0.257-0.511-0.676-0.511-1.335c0-0.646,0.26-1.461,1.057-2.004
			c0.538-0.367,1.337-0.582,2.142-0.582c1.215,0,1.932,0.403,2.246,0.615L152.359,105.906z"/>
		<path fill="#231F20" d="M158.419,105.475h-1.718l-0.992,4.916c-0.097,0.469-0.113,0.824-0.113,0.936
			c0,0.263,0.045,0.426,0.129,0.547c0.154,0.215,0.413,0.246,0.67,0.246c0.283,0,0.558-0.031,0.836-0.163v0.842
			c-0.52,0.233-1.024,0.334-1.425,0.334c-0.61,0-0.949-0.171-1.136-0.35c-0.322-0.325-0.355-0.826-0.355-1.114
			c0-0.264,0.088-0.857,0.125-1.131l1.008-5.063h-1.04l0.179-0.989h1.055c0.294-1.169,0.364-1.493,0.565-2.126l1.386-0.305
			c-0.348,1.047-0.545,1.826-0.649,2.431h1.974L158.419,105.475z"/>
		<path fill="#231F20" d="M164.782,111.822c-1.01,1.123-2.272,1.238-3.008,1.238c-0.684,0-1.479-0.1-2.129-0.85
			c-0.53-0.622-0.692-1.469-0.692-2.23c0-1.225,0.387-3.146,1.754-4.523c0.921-0.926,1.803-1.172,2.621-1.172
			c0.857,0,1.407,0.273,1.738,0.63c0.447,0.479,0.543,1.069,0.543,1.537c0,0.419-0.096,1.11-0.738,1.754
			c-0.752,0.749-2.152,0.938-3.396,0.938c-0.359,0-0.705-0.016-1.025-0.031c-0.078,0.367-0.109,0.773-0.109,1.058
			c0,0.744,0.251,1.141,0.473,1.361c0.398,0.393,0.896,0.449,1.205,0.449c0.898,0,1.545-0.344,2.023-0.785l0.21-0.178
			L164.782,111.822z M161.615,108.15c0.877,0,1.632-0.08,2.129-0.457c0.555-0.396,0.607-0.938,0.607-1.205
			c0-0.857-0.579-1.167-1.221-1.167c-0.383,0-0.94,0.169-1.471,0.761c-0.381,0.412-0.811,1.129-1.006,2.053
			C160.997,108.15,161.314,108.15,161.615,108.15z"/>
		<path fill="#231F20" d="M169.153,104.232c0.144,0.326,0.204,0.668,0.204,0.994c0,0.32-0.061,0.615-0.125,0.855
			c0.352-0.473,0.767-0.871,1.277-1.215c0.531-0.352,1.07-0.582,1.667-0.582c0.536,0,0.92,0.2,1.142,0.666
			c0.146,0.303,0.209,0.795,0.209,1.117c0.74-1.031,1.92-1.783,2.842-1.783c0.514,0,0.945,0.23,1.188,0.535
			c0.221,0.295,0.336,0.758,0.336,1.125c0,0.344-0.084,0.723-0.131,0.926l-1.215,5.995h-1.246l1.18-5.862
			c0.04-0.169,0.098-0.642,0.098-0.799c0-0.363-0.137-0.533-0.283-0.627c-0.198-0.121-0.432-0.121-0.5-0.121
			c-0.316,0-0.625,0.152-0.908,0.352c-0.673,0.465-1.296,1.252-1.532,1.553l-1.114,5.505h-1.249l1.154-5.722
			c0.12-0.587,0.157-0.855,0.157-1.052c0-0.215-0.063-0.362-0.157-0.462c-0.102-0.121-0.243-0.174-0.435-0.174
			c-0.344,0-0.738,0.174-0.99,0.315c-0.753,0.453-1.424,1.263-1.699,1.621l-1.1,5.473h-1.246l1.215-6.017
			c0.045-0.225,0.177-0.914,0.177-1.256c0-0.272-0.05-0.557-0.108-0.789L169.153,104.232z"/>
		<path fill="#231F20" d="M184.984,105.906c-0.846-0.533-1.491-0.601-1.844-0.601c-0.594,0-1.037,0.132-1.304,0.336
			c-0.183,0.115-0.463,0.394-0.463,0.957c0,0.251,0.073,0.421,0.137,0.546c0.144,0.233,0.468,0.438,0.708,0.543l0.99,0.431
			c0.479,0.188,0.939,0.415,1.273,0.899c0.197,0.278,0.367,0.678,0.367,1.221c0,0.611-0.204,1.481-1.072,2.129
			c-0.695,0.526-1.529,0.693-2.33,0.693c-1.165,0-2.039-0.355-2.691-0.781l0.492-1.001c0.688,0.489,1.5,0.772,2.328,0.772
			c0.581,0,1.168-0.15,1.491-0.451c0.247-0.23,0.393-0.625,0.393-0.99c0-0.738-0.378-1.053-0.974-1.329l-0.924-0.43
			c-0.172-0.079-0.701-0.333-1.016-0.645c-0.24-0.257-0.516-0.676-0.516-1.335c0-0.646,0.251-1.461,1.049-2.004
			c0.547-0.367,1.34-0.582,2.137-0.582c1.221,0,1.936,0.403,2.259,0.615L184.984,105.906z"/>
		<path fill="#231F20" d="M195.395,101.317c0.891,0,1.867,0.05,2.649,0.864c0.526,0.537,0.685,1.184,0.685,1.898
			c0,0.857-0.261,2.304-1.531,3.352c-0.533,0.435-1.266,0.832-2.86,0.832h-1.908l-0.938,4.603h-1.304l2.338-11.549H195.395z
			 M194.48,107.145c0.982,0,1.482-0.242,1.981-0.746c0.272-0.291,0.851-0.961,0.851-2.087c0-0.7-0.24-1.09-0.42-1.278
			c-0.49-0.535-1.43-0.559-1.92-0.559h-1.383l-0.947,4.67H194.48z"/>
		<path fill="#231F20" d="M206.52,104.301l-1.178,5.906c-0.035,0.152-0.162,0.842-0.162,1.119c0,0.23,0.053,0.547,0.363,0.969
			l-0.967,0.837c-0.195-0.187-0.399-0.47-0.479-0.722c-0.068-0.199-0.157-0.675-0.116-1.132c-0.27,0.358-0.656,0.757-1.046,1.063
			c-0.499,0.363-1.171,0.719-1.99,0.719c-0.612,0-1.019-0.189-1.224-0.383c-0.398-0.367-0.451-0.942-0.451-1.293
			c0-0.451,0.068-0.916,0.137-1.23l1.135-5.602l1.291-0.252l-1.123,5.555c-0.146,0.723-0.146,1.023-0.146,1.166
			c0,0.211,0.021,0.567,0.227,0.746c0.155,0.156,0.406,0.173,0.521,0.173c0.71,0,1.377-0.478,1.587-0.65
			c0.415-0.315,0.882-0.8,1.258-1.487l1.054-5.25L206.52,104.301z"/>
		<path fill="#231F20" d="M210.615,104.5c-0.082,0.415-0.263,1.063-0.387,1.551c0.674-1.014,1.836-1.766,2.903-1.766
			c1.454,0,2.158,1.021,2.158,2.775c0,2.004-0.771,3.818-1.856,4.92c-0.709,0.707-1.654,1.08-2.563,1.08
			c-0.997,0-2.221-0.263-3.071-1.025c0.083-0.268,0.226-0.84,0.304-1.265l1.457-7.21c0.117-0.553,0.158-1.127,0.158-1.621
			c0-0.367-0.031-0.707-0.09-0.947l1.315-0.535c0.07,0.252,0.114,0.598,0.114,0.966c0,0.554-0.078,1.228-0.225,1.942L210.615,104.5z
			 M209.188,111.451c0.424,0.371,0.926,0.505,1.684,0.505c0.588,0,1.352-0.399,1.722-0.845c0.841-1.011,1.328-2.763,1.328-4.045
			c0-0.984-0.416-1.576-1.299-1.576c-0.843,0-1.72,0.676-2.616,1.888L209.188,111.451z"/>
		<path fill="#231F20" d="M219.926,100.457c0.078,0.383,0.11,0.748,0.11,1.094c0,0.578-0.131,1.383-0.235,1.965l-1.527,7.502
			c-0.075,0.367-0.075,0.545-0.075,0.598c0,0.104,0.019,0.216,0.075,0.309c0.08,0.096,0.232,0.096,0.307,0.096
			c0.115,0,0.193-0.021,0.258-0.029l0.078,0.85c-0.236,0.105-0.544,0.191-0.943,0.191c-0.303,0-0.649-0.055-0.877-0.326
			c-0.188-0.232-0.203-0.53-0.203-0.749c0-0.204,0.027-0.394,0.078-0.646l1.564-7.795c0.098-0.482,0.174-1.168,0.174-1.551
			c0-0.352-0.029-0.657-0.113-0.973L219.926,100.457z"/>
		<path fill="#231F20" d="M221.941,112.866h-1.248l1.688-8.366l1.279-0.199L221.941,112.866z M223.502,102.918
			c-0.525,0-0.978-0.459-0.978-1.01c0-0.559,0.452-1.042,0.978-1.042s0.973,0.468,0.973,1.031
			C224.475,102.448,224.027,102.918,223.502,102.918z"/>
		<path fill="#231F20" d="M230.764,106.014c-0.572-0.488-1.209-0.587-1.619-0.587c-0.227,0-1.057,0.083-1.688,0.936
			c-0.338,0.457-0.563,1.099-0.746,1.683c-0.175,0.632-0.359,1.512-0.359,2.24c0,0.34,0.037,0.795,0.264,1.131
			s0.637,0.604,1.234,0.604c0.648,0,1.369-0.336,1.895-0.908l0.516,0.845c-1.078,0.968-1.988,1.104-2.656,1.104
			c-0.92,0-1.514-0.221-1.977-0.75c-0.484-0.559-0.626-1.23-0.626-2.1c0-1.057,0.288-2.061,0.61-2.833
			c0.525-1.271,1.184-1.903,1.43-2.14c0.474-0.418,1.262-0.953,2.383-0.953c0.572,0,1.282,0.109,1.935,0.697L230.764,106.014z"/>
		<path fill="#231F20" d="M237.127,113.234c-0.421-0.426-0.625-0.955-0.625-1.499c0-0.12,0.01-0.221,0.025-0.331
			c-0.23,0.473-0.6,0.891-1.141,1.221c-0.432,0.246-0.967,0.436-1.557,0.436c-0.552,0-1.02-0.167-1.383-0.635
			c-0.32-0.427-0.595-1.1-0.595-2.021c0-1.276,0.447-3.385,1.679-4.705c0.619-0.662,1.677-1.414,3.192-1.414
			c1.198,0,1.909,0.441,2.223,0.682c-0.263,0.979-0.313,1.238-0.415,1.758l-0.695,3.482c-0.072,0.402-0.146,0.768-0.146,1.104
			c0,0.409,0.111,0.777,0.422,1.115L237.127,113.234z M237.553,105.578c-0.156-0.104-0.451-0.23-1.01-0.23
			c-0.877,0-1.641,0.367-2.256,1.21c-0.914,1.203-1.123,2.913-1.123,3.863c0,0.286,0.02,0.794,0.271,1.136
			c0.127,0.163,0.369,0.384,0.783,0.384c0.652,0,1.131-0.352,1.432-0.63c0.42-0.377,0.768-0.789,1.045-1.387L237.553,105.578z"/>
		<path fill="#231F20" d="M244.611,105.475h-1.726l-0.989,4.916c-0.1,0.469-0.115,0.824-0.115,0.936
			c0,0.263,0.053,0.426,0.131,0.547c0.158,0.215,0.416,0.246,0.674,0.246c0.289,0,0.557-0.031,0.831-0.163v0.842
			c-0.511,0.233-1.026,0.334-1.42,0.334c-0.61,0-0.94-0.171-1.136-0.35c-0.32-0.325-0.352-0.826-0.352-1.114
			c0-0.264,0.078-0.857,0.12-1.131l1.01-5.063h-1.036l0.173-0.989h1.058c0.289-1.169,0.363-1.493,0.557-2.126l1.394-0.305
			c-0.351,1.047-0.546,1.826-0.651,2.431h1.973L244.611,105.475z"/>
		<path fill="#231F20" d="M246.156,112.866h-1.241l1.694-8.366l1.271-0.199L246.156,112.866z M247.729,102.918
			c-0.525,0-0.979-0.459-0.979-1.01c0-0.559,0.453-1.042,0.979-1.042c0.532,0,0.974,0.468,0.974,1.031
			C248.702,102.448,248.261,102.918,247.729,102.918z"/>
		<path fill="#231F20" d="M254.52,111.956c-0.947,0.915-1.989,1.104-2.772,1.104c-0.968,0-1.593-0.398-1.962-0.85
			c-0.567-0.696-0.652-1.658-0.652-2.246c0-1.716,0.594-3.313,1.516-4.355c0.957-1.094,2.092-1.324,2.887-1.324
			c0.994,0,1.6,0.346,1.981,0.79c0.573,0.655,0.705,1.508,0.705,2.265C256.222,109.249,255.533,110.953,254.52,111.956z
			 M254.434,105.824c-0.236-0.262-0.637-0.461-1.113-0.461c-0.422,0-1.248,0.094-1.921,1.073c-0.699,1.024-0.888,2.581-0.888,3.648
			c0,0.421,0.041,1.042,0.371,1.446c0.359,0.425,0.838,0.459,1.127,0.459c0.709,0,1.42-0.297,2.009-1.23
			c0.636-1.013,0.836-2.411,0.836-3.453C254.854,106.787,254.817,106.248,254.434,105.824z"/>
		<path fill="#231F20" d="M260.024,104.232c0.063,0.147,0.194,0.543,0.194,1.006c0,0.393-0.08,0.723-0.111,0.844
			c0.689-1.029,1.898-1.797,3.076-1.797c0.464,0,0.863,0.109,1.174,0.426c0.348,0.379,0.426,0.867,0.426,1.25
			c0,0.244-0.031,0.423-0.053,0.533l-1.293,6.372h-1.236l1.146-5.68c0.063-0.3,0.122-0.667,0.122-0.897c0-0.207,0-0.465-0.201-0.647
			c-0.162-0.151-0.356-0.204-0.567-0.204c-0.362,0-0.741,0.156-1.082,0.356c-0.479,0.299-1.146,0.858-1.688,1.6l-1.104,5.473h-1.247
			l1.211-5.995c0.078-0.377,0.183-0.803,0.183-1.293c0-0.257-0.03-0.503-0.108-0.773L260.024,104.232z"/>
		<path fill="#231F20" d="M271.877,105.906c-0.852-0.533-1.488-0.601-1.835-0.601c-0.599,0-1.04,0.132-1.32,0.336
			c-0.168,0.115-0.451,0.394-0.451,0.957c0,0.251,0.073,0.421,0.136,0.546c0.147,0.233,0.463,0.438,0.705,0.543l0.988,0.431
			c0.475,0.188,0.941,0.415,1.277,0.899c0.195,0.278,0.369,0.678,0.369,1.221c0,0.611-0.205,1.481-1.072,2.129
			c-0.705,0.526-1.531,0.693-2.33,0.693c-1.168,0-2.041-0.355-2.698-0.781l0.495-1.001c0.688,0.489,1.504,0.772,2.33,0.772
			c0.582,0,1.172-0.15,1.488-0.451c0.252-0.23,0.404-0.625,0.404-0.99c0-0.738-0.395-1.053-0.979-1.329l-0.926-0.43
			c-0.184-0.079-0.699-0.333-1.025-0.645c-0.236-0.257-0.506-0.676-0.506-1.335c0-0.646,0.248-1.461,1.047-2.004
			c0.542-0.367,1.341-0.582,2.146-0.582c1.215,0,1.924,0.403,2.252,0.615L271.877,105.906z"/>
	</g>
</g>
<g>
	<path fill="#231F20" d="M123.736,50.152l-0.144-0.466l-0.146-0.461l-0.172-0.395l-0.194-0.453l-0.204-0.376l-0.258-0.349
		l-0.283-0.369l-0.287-0.338l-0.315-0.317l-0.341-0.345l-0.374-0.287l-0.407-0.224l-0.392-0.269l-0.429-0.192l-0.43-0.204
		l-0.43-0.114l-0.489-0.134l-0.424-0.121l-0.54-0.082l-0.492-0.1l-0.54-0.05l-0.58-0.056h-0.52h-0.57l-0.567,0.056l-0.57,0.05
		l-0.574,0.1l-0.566,0.082l-0.548,0.173l-0.579,0.113l-0.535,0.175l-0.519,0.17l-0.482,0.197l-0.55,0.206l-0.481,0.279l-0.498,0.289
		l-0.481,0.288l-0.483,0.317l-0.518,0.338l-0.43,0.369l-0.458,0.349l-0.457,0.427l-0.402,0.402l-0.4,0.455l-0.429,0.431
		l-0.338,0.518l-0.346,0.483l-0.282,0.427l-0.229,0.428l-0.257,0.311l-0.18,0.294l-0.114,0.256l-0.109,0.142l-0.056,0.088
		l-0.033,0.057l-0.058,0.143l-0.144,0.54l-0.255,0.86l-0.346,1.147l-0.023,0.065l-0.237,1.25l-0.17,1.235l-0.025,1.136v1.062
		l0.025,0.49l0.12,0.456l0.138,0.433l0.149,0.452l0.195,0.46l0.226,0.407l0.234,0.368l0.259,0.367l0.312,0.318l0.348,0.347
		l0.339,0.279l0.375,0.284l0.426,0.238l0.402,0.198l0.406,0.256l0.396,0.167l0.427,0.12l0.427,0.108l0.514,0.089l0.487,0.089
		l0.512,0.084l0.575,0.089l0.544,0.032h0.571h0.576l0.512-0.032l0.574-0.089l0.602-0.084l0.521-0.089l0.566-0.115l0.542-0.108
		l0.578-0.173l0.48-0.168l0.52-0.175l0.519-0.231l0.484-0.257l0.518-0.231l0.482-0.279l0.513-0.347l0.485-0.318l0.434-0.367
		l0.511-0.368l0.437-0.407l0.426-0.46l0.399-0.452l0.401-0.489l0.37-0.484l0.377-0.487l0.309-0.484l0.338-0.542l0.292-0.511
		l0.234-0.58l0.252-0.629l0.261-0.605l0.196-0.624l0.2-0.626v-0.065l0.292-1.317l0.164-1.26l0.058-1.144l-0.058-1.062
		L123.736,50.152z M117.19,55.474l-0.171,0.508l-0.237,0.571l-0.252,0.57l-0.233,0.573l-0.145,0.291l-0.142,0.256l-0.166,0.295
		l-0.175,0.217l-0.18,0.294l-0.195,0.247l-0.2,0.23l-0.2,0.262l-0.203,0.192l-0.195,0.205l-0.265,0.202l-0.196,0.174l-0.255,0.173
		l-0.232,0.169l-0.258,0.109l-0.285,0.113l-0.236,0.091l-0.272,0.123l-0.259,0.073l-0.289,0.064l-0.315,0.028l-0.288,0.029
		l-0.342,0.06h-0.289h-0.287l-0.292-0.06l-0.279-0.029l-0.293-0.028l-0.217-0.064l-0.257-0.073l-0.259-0.123l-0.2-0.091
		l-0.325-0.222l-0.339-0.342l-0.226-0.376l-0.173-0.397l-0.112-0.492l-0.087-0.541l-0.088-0.512v-0.547v-0.481v-0.318v-0.234v-0.05
		l0.061-0.084l0.054-0.263l0.142-0.308l0.121-0.484l0.026-0.065l0.14-0.565l0.199-0.605l0.229-0.573l0.287-0.571l0.143-0.284
		l0.147-0.266l0.173-0.286l0.162-0.257l0.182-0.279l0.194-0.201l0.149-0.231l0.223-0.196l0.144-0.263l0.2-0.206l0.226-0.196
		l0.232-0.196l0.257-0.171l0.232-0.18l0.254-0.106l0.284-0.118l0.286-0.095l0.268-0.133l0.277-0.058l0.287-0.055l0.314-0.032
		l0.289-0.06l0.315-0.021h0.287h0.277l0.347,0.021l0.233,0.06l0.285,0.032l0.261,0.055l0.253,0.058l0.225,0.133l0.203,0.095
		l0.348,0.225l0.312,0.352l0.29,0.392l0.164,0.468l0.091,0.428l0.084,0.48v0.543v0.549v0.571l-0.057,0.573l-0.086,0.605
		l-0.107,0.565V55.474z"/>
	<polygon fill="#231F20" points="126.516,65.858 132.52,65.858 135.291,55.409 136.842,49.658 141.848,49.658 143.105,44.912 
		127.088,44.912 125.883,49.658 130.889,49.658 129.342,55.409 	"/>
	<polygon fill="#231F20" points="145.221,65.937 148.111,55.067 148.167,55.067 148.203,55.008 148.258,54.979 148.285,54.979 
		148.315,54.979 148.397,54.979 148.49,54.979 148.573,54.979 148.598,54.924 148.656,54.893 148.688,54.893 148.745,54.893 
		148.775,54.844 148.864,54.804 148.939,54.78 149.031,54.72 149.062,54.72 149.112,54.639 149.226,54.61 149.316,54.61 
		149.347,54.691 149.4,54.804 149.429,54.893 149.46,54.979 149.518,55.008 149.542,55.067 149.595,55.13 149.632,55.18 
		149.688,55.264 149.746,55.354 149.807,55.474 149.832,55.547 149.832,55.578 149.89,55.64 149.915,55.671 149.915,55.703 
		150.001,55.84 150.123,55.982 150.201,56.214 150.291,56.323 150.375,56.5 150.492,56.693 150.574,56.896 150.665,57.065 
		150.83,57.497 151.033,57.958 151.231,58.411 151.402,58.903 151.523,59.382 151.72,59.932 151.891,60.496 152.004,61.078 
		152.117,61.651 152.299,62.218 152.408,62.793 152.471,63.398 152.471,64.018 152.408,64.652 152.383,65.317 152.383,65.937 
		158.56,65.937 158.56,65.652 158.594,65.317 158.641,64.998 158.641,64.652 158.641,64.369 158.594,64.048 158.56,63.744 
		158.56,63.398 158.56,63.117 158.504,62.793 158.411,62.416 158.411,62.046 158.387,61.762 158.355,61.39 158.298,61.078 
		158.267,60.699 158.188,60.137 158.016,59.56 157.841,58.985 157.725,58.411 157.552,57.862 157.413,57.296 157.244,56.724 
		157.073,56.159 156.926,55.64 156.701,55.067 156.469,54.517 156.182,53.983 155.9,53.49 155.612,52.974 155.267,52.485 
		154.977,51.972 155.154,51.922 155.355,51.841 155.528,51.754 155.725,51.636 155.927,51.492 156.127,51.402 156.348,51.291 
		156.558,51.176 156.756,51.063 156.952,50.912 157.157,50.807 157.357,50.626 157.552,50.521 157.788,50.346 157.983,50.177 
		158.188,50.063 158.387,49.94 158.594,49.833 158.787,49.658 158.955,49.487 159.164,49.372 159.355,49.204 159.525,49.029 
		159.734,48.919 159.902,48.799 160.105,48.633 160.279,48.457 160.476,48.315 160.646,48.162 160.785,48.035 160.988,47.854 
		161.16,47.741 161.249,47.652 161.363,47.537 161.445,47.454 161.533,47.374 161.615,47.283 161.732,47.168 161.816,47.087 
		161.905,47 161.935,46.91 161.994,46.8 162.069,46.706 162.138,46.627 162.214,46.601 162.363,46.537 162.45,46.456 162.51,46.395 
		162.68,46.23 162.793,46.027 162.938,45.822 163.079,45.659 163.221,45.486 163.337,45.312 163.447,45.167 163.62,44.994 
		156.469,44.994 156.214,45.28 155.987,45.536 155.725,45.772 155.438,46.027 155.243,46.23 154.952,46.435 154.67,46.683 
		154.376,46.824 154.212,46.91 154.068,47 153.896,47.11 153.721,47.283 153.607,47.374 153.494,47.454 153.322,47.568 
		153.209,47.652 153.033,47.741 152.871,47.827 152.699,47.894 152.546,47.971 152.408,48.05 152.299,48.162 152.117,48.225 
		152.004,48.256 151.891,48.346 151.72,48.428 151.523,48.551 151.402,48.633 151.231,48.683 151.119,48.714 150.978,48.743 
		150.83,48.799 150.695,48.888 150.544,48.998 150.32,49.029 150.201,49.085 150.03,49.112 149.915,49.175 149.807,49.255 
		149.632,49.285 150.83,44.994 144.855,44.994 139.217,65.937 	"/>
	<polygon fill="#231F20" points="166.229,65.937 170.546,49.745 173.296,49.745 173.492,49.745 173.693,49.745 173.865,49.776 
		174.066,49.776 174.238,49.833 174.432,49.858 174.559,49.858 174.723,49.882 175.01,49.94 175.269,50.031 175.474,50.113 
		175.637,50.266 175.779,50.401 175.952,50.544 176.131,50.744 176.268,50.891 176.353,51.063 176.441,51.176 176.525,51.291 
		176.557,51.454 176.557,51.572 176.609,51.754 176.635,51.942 176.635,52.055 176.635,52.153 176.609,52.259 176.557,52.406 
		176.557,52.524 176.557,52.607 176.525,52.718 176.441,52.811 176.441,52.893 176.441,52.974 176.441,53.065 176.441,53.116 
		176.441,53.172 176.332,53.579 176.131,53.952 175.952,54.344 175.753,54.72 175.553,55.008 175.301,55.264 175.01,55.547 
		174.723,55.703 174.559,55.84 174.432,55.926 174.268,55.982 174.066,56.068 173.929,56.159 173.752,56.238 173.549,56.266 
		173.379,56.323 173.201,56.356 173.097,56.414 172.928,56.437 172.725,56.5 172.545,56.5 172.408,56.529 172.203,56.529 
		172.034,56.529 171.865,56.529 171.746,56.529 171.602,56.529 171.461,56.529 171.318,56.529 171.204,56.5 171.03,56.437 
		170.914,56.437 170.803,56.437 170.691,56.356 170.525,56.323 170.396,56.323 170.32,56.266 170.178,56.238 170.057,56.214 
		169.947,56.159 168.748,60.791 168.916,60.841 169.11,60.936 169.32,61.014 169.489,61.078 169.657,61.078 169.863,61.103 
		170.057,61.126 170.32,61.126 170.463,61.126 170.691,61.191 170.893,61.217 171.094,61.217 171.264,61.217 171.496,61.217 
		171.693,61.217 171.919,61.217 172.438,61.217 172.928,61.191 173.465,61.126 173.954,61.078 174.411,60.984 174.9,60.841 
		175.35,60.735 175.753,60.617 176.157,60.442 176.557,60.269 176.934,60.076 177.351,59.872 177.699,59.646 178.122,59.382 
		178.502,59.127 178.813,58.903 179.136,58.612 179.471,58.328 179.791,57.987 180.122,57.672 180.422,57.359 180.711,57.01 
		180.932,56.693 181.189,56.323 181.395,55.958 181.59,55.578 181.764,55.204 181.969,54.804 182.133,54.415 182.279,53.983 
		182.42,53.579 182.537,53.172 182.537,53.116 182.563,53.065 182.615,52.974 182.615,52.893 182.615,52.832 182.646,52.811 
		182.704,52.78 182.704,52.718 182.704,52.696 182.704,52.607 182.704,52.545 182.704,52.524 182.704,52.485 182.704,52.432 
		182.704,52.406 182.704,52.351 182.793,52.32 182.811,52.259 182.811,52.205 182.811,52.153 182.852,51.492 182.852,50.807 
		182.811,50.152 182.704,49.54 182.563,48.979 182.367,48.397 182.133,47.827 181.793,47.283 181.59,47 181.395,46.741 
		181.141,46.516 180.846,46.259 180.559,46.051 180.242,45.846 179.936,45.679 179.564,45.566 179.136,45.453 178.729,45.312 
		178.271,45.256 177.782,45.167 177.27,45.074 176.782,45.024 176.209,44.994 175.637,44.994 165.85,44.994 160.217,65.937 	"/>
	<polygon fill="#231F20" points="191.092,65.858 191.237,65.858 191.41,65.858 191.602,65.858 191.809,65.858 192.008,65.858 
		192.291,65.858 192.575,65.858 192.862,65.858 193.039,65.858 193.148,65.794 193.321,65.794 193.533,65.769 193.689,65.707 
		193.863,65.675 194.064,65.652 194.236,65.596 194.387,65.596 194.557,65.563 194.729,65.508 194.926,65.481 195.094,65.427 
		195.299,65.369 195.499,65.317 195.703,65.227 195.957,65.133 196.183,65.082 196.438,64.998 196.664,64.853 196.938,64.735 
		197.214,64.623 197.463,64.449 197.697,64.335 197.955,64.217 198.186,64.048 198.444,63.884 198.67,63.704 198.928,63.557 
		199.195,63.365 199.42,63.191 199.67,62.989 199.902,62.793 200.158,62.528 200.357,62.273 200.617,62.046 200.813,61.762 
		201.02,61.478 201.221,61.191 201.416,60.905 201.762,60.241 202.078,59.503 202.365,58.697 202.566,57.862 202.732,57.042 
		202.846,56.238 202.913,55.474 202.913,55.385 202.846,54.72 202.732,54.039 202.535,53.373 202.277,52.75 201.967,52.176 
		201.762,51.882 201.502,51.659 201.248,51.374 201.02,51.123 200.732,50.891 200.441,50.695 200.105,50.521 199.793,50.346 
		199.42,50.234 199.039,50.113 198.67,50.031 198.271,49.94 197.871,49.882 197.408,49.858 196.961,49.833 196.53,49.833 
		196.355,49.833 196.183,49.858 196.018,49.882 195.867,49.882 195.728,49.882 195.609,49.882 195.436,49.882 195.32,49.882 
		195.236,49.882 195.121,49.94 195.008,49.979 194.86,49.979 194.729,49.979 194.59,49.979 194.469,49.979 194.354,49.979 
		194.295,49.979 194.264,50.031 194.182,50.113 194.15,50.113 194.096,50.113 194.064,50.113 194.002,50.113 193.979,50.113 
		193.947,50.113 193.899,50.113 193.809,50.113 193.79,50.113 193.725,50.152 193.689,50.177 193.664,50.177 193.606,50.177 
		193.58,50.177 193.533,50.177 193.496,50.177 193.435,50.177 193.379,50.177 193.321,50.177 193.291,50.234 193.232,50.266 
		193.217,50.266 193.148,50.266 193.119,50.266 193.096,50.266 193.039,50.266 192.949,50.266 191.69,54.979 191.779,54.979 
		191.809,54.979 191.86,54.924 191.892,54.893 191.949,54.893 191.973,54.893 192.092,54.844 192.238,54.804 192.35,54.751 
		192.432,54.72 192.525,54.72 192.628,54.691 192.754,54.639 192.862,54.639 192.949,54.639 193.096,54.556 193.217,54.517 
		193.321,54.517 193.406,54.517 193.533,54.517 193.664,54.517 193.79,54.517 193.979,54.517 194.236,54.556 194.441,54.556 
		194.641,54.61 194.842,54.639 195.008,54.691 195.152,54.751 195.32,54.804 195.609,54.979 195.867,55.13 196.063,55.385 
		196.234,55.608 196.382,55.896 196.467,56.159 196.557,56.437 196.588,56.724 196.588,57.01 196.557,57.296 196.467,57.591 
		196.438,57.862 196.267,58.411 196.102,58.921 195.867,59.414 195.609,59.789 195.499,59.932 195.32,60.076 195.152,60.217 
		195.008,60.331 194.842,60.419 194.641,60.496 194.441,60.563 194.236,60.617 194.064,60.699 193.863,60.735 193.689,60.809 
		193.496,60.905 193.321,60.984 193.119,61.078 192.923,61.103 192.722,61.126 192.525,61.126 192.291,61.126 192.092,61.191 
		191.892,61.191 191.69,61.191 191.491,61.217 191.293,61.217 191.092,61.217 191.029,61.217 190.998,61.217 190.941,61.217 
		190.861,61.217 190.834,61.217 190.803,61.217 189.008,61.217 190.551,55.385 193.321,44.912 187.365,44.912 184.541,55.385 
		181.709,65.858 	"/>
	<polygon fill="#231F20" points="207.678,65.858 210.486,55.385 213.289,44.912 207.311,44.912 204.509,55.385 201.672,65.858 	"/>
	<polygon fill="#231F20" points="214.471,65.937 220.473,65.937 224.821,49.745 229.808,49.745 231.069,44.994 215.038,44.994 
		213.867,49.745 218.842,49.745 	"/>
	<polygon fill="#231F20" points="227.141,65.858 236.502,65.858 236.669,65.858 236.838,65.858 237.043,65.858 237.237,65.858 
		237.438,65.858 237.727,65.858 238.021,65.858 238.3,65.858 238.468,65.858 238.59,65.794 238.758,65.794 238.962,65.769 
		239.132,65.707 239.273,65.675 239.504,65.652 239.651,65.596 239.82,65.596 239.993,65.563 240.135,65.508 240.361,65.481 
		240.498,65.427 240.697,65.369 240.93,65.317 241.135,65.227 241.361,65.133 241.624,65.082 241.844,64.998 242.107,64.853 
		242.37,64.735 242.65,64.623 242.875,64.449 243.133,64.335 243.365,64.217 243.622,64.048 243.886,63.884 244.105,63.704 
		244.368,63.557 244.601,63.365 244.853,63.191 245.084,62.989 245.336,62.793 245.598,62.528 245.799,62.273 246.03,62.046 
		246.227,61.762 246.451,61.478 246.656,61.191 246.856,60.905 247.166,60.241 247.508,59.503 247.797,58.697 247.997,57.862 
		248.17,57.042 248.286,56.238 248.309,55.474 248.309,55.385 248.286,54.72 248.17,54.039 247.943,53.373 247.719,52.75 
		247.371,52.176 247.166,51.882 246.945,51.659 246.682,51.374 246.451,51.123 246.172,50.891 245.883,50.695 245.541,50.521 
		245.216,50.346 244.853,50.234 244.484,50.113 244.105,50.031 243.701,49.94 243.307,49.882 242.854,49.858 242.391,49.833 
		241.934,49.833 241.792,49.833 241.624,49.858 241.444,49.882 241.277,49.882 241.166,49.882 241.045,49.882 240.871,49.882 
		240.761,49.882 240.672,49.882 240.557,49.94 240.414,49.979 240.311,49.979 240.135,49.979 240.025,49.979 239.899,49.979 
		239.789,49.979 239.736,49.979 239.698,50.031 239.619,50.113 239.563,50.113 239.531,50.113 239.504,50.113 239.441,50.113 
		239.41,50.113 239.357,50.113 239.331,50.113 239.247,50.113 239.216,50.113 239.158,50.152 239.132,50.177 239.072,50.177 
		239.041,50.177 238.988,50.177 238.962,50.177 238.931,50.177 238.867,50.177 238.795,50.177 238.758,50.177 238.705,50.234 
		238.674,50.266 238.647,50.266 238.59,50.266 238.563,50.266 238.5,50.266 238.468,50.266 238.389,50.266 237.127,54.979 
		237.211,54.979 237.237,54.979 237.27,54.924 237.327,54.893 237.365,54.893 237.412,54.893 237.521,54.844 237.643,54.804 
		237.784,54.751 237.836,54.72 237.928,54.72 238.074,54.691 238.189,54.639 238.3,54.639 238.389,54.639 238.5,54.556 
		238.647,54.517 238.758,54.517 238.842,54.517 238.962,54.517 239.072,54.517 239.216,54.517 239.41,54.517 239.651,54.556 
		239.846,54.556 240.072,54.61 240.278,54.639 240.414,54.691 240.588,54.751 240.761,54.804 241.045,54.979 241.277,55.13 
		241.508,55.385 241.65,55.608 241.823,55.896 241.906,56.159 241.991,56.437 242.018,56.724 242.018,57.01 241.991,57.296 
		241.906,57.591 241.844,57.862 241.703,58.411 241.535,58.921 241.277,59.414 241.045,59.789 240.93,59.932 240.761,60.076 
		240.588,60.217 240.414,60.331 240.278,60.419 240.072,60.496 239.846,60.563 239.651,60.617 239.504,60.699 239.273,60.735 
		239.132,60.809 238.931,60.905 238.758,60.984 238.563,61.078 238.357,61.103 238.132,61.126 237.928,61.126 237.727,61.126 
		237.521,61.191 237.327,61.191 237.127,61.191 236.928,61.217 236.695,61.217 236.502,61.217 236.47,61.217 236.418,61.217 
		236.387,61.217 236.297,61.217 236.27,61.217 236.213,61.217 234.404,61.217 235.955,55.385 238.758,44.912 232.778,44.912 
		229.971,55.385 	"/>
	<polygon fill="#231F20" points="253.082,65.858 255.896,55.385 258.705,44.912 252.75,44.912 249.917,55.385 247.082,65.858 	"/>
	<polygon fill="#231F20" points="266.891,53.721 266.256,56.068 274.149,56.068 274.781,53.721 275.411,51.374 267.512,51.374 	"/>
	<polygon fill="#231F20" points="144.882,77.474 145.086,77.497 145.251,77.587 145.367,77.587 145.537,77.613 145.739,77.669 
		145.936,77.697 146.111,77.753 146.284,77.753 146.396,77.785 146.51,77.816 146.658,77.816 147.826,73.301 147.662,73.241 
		147.458,73.204 147.26,73.183 147.028,73.112 146.794,73.094 146.568,73 146.364,72.95 146.111,72.921 145.91,72.921 
		145.658,72.896 145.428,72.834 145.138,72.834 144.855,72.834 144.587,72.834 144.301,72.834 144.023,72.834 143.361,72.834 
		142.676,72.896 142.022,72.95 141.419,73.031 140.765,73.183 140.132,73.301 139.53,73.461 138.957,73.662 138.385,73.867 
		137.81,74.054 137.245,74.325 136.672,74.553 136.123,74.84 135.609,75.185 135.126,75.5 134.634,75.81 134.181,76.238 
		133.718,76.638 133.267,77.037 132.862,77.497 132.467,77.952 132.09,78.442 131.775,78.902 131.746,78.958 131.434,79.384 
		131.15,79.874 130.835,80.364 130.572,80.898 130.293,81.471 130.058,81.992 129.801,82.561 129.6,83.135 129.425,83.707 
		129.425,83.797 129.403,83.912 129.342,83.992 129.342,84.076 129.342,84.139 129.342,84.195 129.342,84.286 129.342,84.37 
		129.342,84.423 129.317,84.443 129.261,84.533 129.261,84.617 129.261,84.66 129.261,84.738 129.261,84.823 129.261,84.912 
		129.146,85.801 129.06,86.705 129.117,87.598 129.178,88.456 129.317,89.292 129.513,90.092 129.801,90.912 130.171,91.685 
		130.374,92.063 130.637,92.433 130.917,92.746 131.233,93.039 131.602,93.32 131.979,93.578 132.407,93.777 132.862,93.977 
		133.322,94.143 133.837,94.271 134.379,94.383 134.953,94.462 135.553,94.558 136.187,94.635 136.842,94.667 137.525,94.667 
		137.7,94.667 137.898,94.667 138.071,94.635 138.272,94.577 138.416,94.577 138.592,94.558 138.784,94.558 138.957,94.558 
		139.243,94.558 139.559,94.558 139.846,94.558 140.132,94.558 140.419,94.525 140.674,94.462 140.96,94.437 141.215,94.383 
		141.506,94.357 141.732,94.292 141.991,94.271 142.224,94.242 143.512,89.603 143.452,89.603 143.361,89.635 143.309,89.713 
		143.226,89.713 143.167,89.713 143.136,89.713 143.081,89.713 143.053,89.713 143.019,89.713 142.939,89.766 142.856,89.797 
		142.762,89.797 142.736,89.797 142.676,89.797 142.646,89.797 142.589,89.797 142.446,89.859 142.311,89.893 142.187,89.918 
		142.022,89.972 141.91,89.972 141.789,89.972 141.653,89.972 141.597,89.972 141.45,89.972 141.333,90.004 141.215,90.092 
		141.13,90.092 141.047,90.092 140.96,90.092 140.848,90.092 140.765,90.092 140.674,90.092 140.591,90.154 140.478,90.175 
		140.391,90.175 140.305,90.175 140.215,90.175 140.132,90.175 140.076,90.175 139.906,90.175 139.79,90.154 139.646,90.092 
		139.5,90.092 139.361,90.092 139.217,90.092 138.984,90.092 138.873,90.092 138.702,90.062 138.558,89.972 138.385,89.918 
		138.213,89.893 138.107,89.859 137.927,89.797 137.729,89.766 137.617,89.713 137.328,89.57 137.041,89.396 136.752,89.203 
		136.502,89.008 136.298,88.734 136.073,88.456 135.844,88.142 135.696,87.794 135.553,87.487 135.414,87.057 135.268,86.625 
		135.239,86.078 135.268,85.569 135.351,84.996 135.494,84.37 135.609,83.707 135.844,83.044 136.123,82.355 136.474,81.767 
		136.782,81.191 136.954,80.898 137.155,80.642 137.357,80.364 137.553,80.099 137.81,79.874 138.071,79.618 138.303,79.384 
		138.592,79.181 138.873,78.958 139.161,78.753 139.439,78.62 139.79,78.384 140.076,78.241 140.391,78.074 140.71,77.952 
		141.047,77.816 141.358,77.753 141.704,77.697 142.022,77.613 142.39,77.587 142.762,77.524 143.136,77.497 143.538,77.474 
		143.942,77.474 144.106,77.474 144.301,77.474 144.51,77.474 144.772,77.474 	"/>
	<polygon fill="#231F20" points="270.777,65.858 272.062,61.217 263.8,61.217 265.775,53.721 266.855,49.658 274.586,49.658 
		275.864,44.912 262.164,44.912 259.787,53.721 256.521,65.858 	"/>
	<polygon fill="#231F20" points="163.11,73.38 162.938,73.461 162.732,73.58 162.537,73.662 162.363,73.756 162.214,73.786 
		162.018,73.867 161.791,73.981 161.644,74.121 161.445,74.209 161.191,74.325 160.988,74.439 160.728,74.553 160.591,74.636 
		160.36,74.776 160.16,74.898 160.013,75.005 159.79,75.185 159.555,75.3 159.355,75.413 159.102,75.583 158.9,75.694 
		158.704,75.865 158.445,76.065 158.298,76.209 158.072,76.328 157.841,76.526 157.644,76.696 157.39,76.842 157.184,76.986 
		156.926,77.126 156.727,77.354 156.584,77.474 156.441,77.563 156.327,77.646 156.154,77.753 156.037,77.843 155.874,77.932 
		155.754,77.992 155.672,78.129 155.586,78.211 155.406,78.325 155.295,78.442 155.207,78.557 155.122,78.643 155.07,78.723 
		154.928,78.812 154.804,78.925 154.704,79.018 156.214,73.38 150.23,73.38 144.587,94.326 150.603,94.326 152.771,86.078 
		152.893,86.025 153.066,85.885 153.18,85.773 153.293,85.653 153.377,85.485 153.494,85.375 153.633,85.221 153.75,85.08 
		153.782,85.027 153.865,84.996 153.924,84.938 153.961,84.912 153.984,84.881 154.037,84.789 154.068,84.738 154.117,84.707 
		154.27,84.617 154.407,84.533 154.496,84.443 154.549,84.37 154.639,84.308 154.779,84.166 154.844,84.076 154.928,84.021 
		155.096,83.854 155.295,83.676 155.559,83.502 155.754,83.371 155.987,83.188 156.214,82.992 156.41,82.787 156.584,82.624 
		156.727,82.524 156.874,82.444 156.926,82.355 157.01,82.309 157.1,82.245 157.215,82.166 157.357,82.07 157.479,82.012 
		157.552,81.935 157.668,81.797 157.788,81.733 157.926,81.648 158.016,81.594 158.133,81.561 158.246,81.451 158.355,81.361 
		158.525,81.222 158.787,81.104 158.987,80.989 159.188,80.814 159.355,80.704 159.584,80.532 159.79,80.414 160.013,80.303 
		160.16,80.13 160.36,80.016 160.591,79.874 160.728,79.762 160.905,79.673 161.107,79.565 161.363,79.467 161.564,79.384 
		157.479,94.326 163.48,94.326 169.083,73.38 	"/>
	<polygon fill="#231F20" points="187.088,73.349 186.885,73.301 186.686,73.264 186.434,73.204 186.225,73.183 185.996,73.094 
		185.797,73.063 185.544,73 185.338,73 185.081,72.978 184.85,72.921 184.572,72.921 184.282,72.921 184.025,72.921 183.734,72.921 
		183.451,72.921 182.793,72.921 182.104,72.978 181.447,73.063 180.846,73.112 180.186,73.264 179.564,73.38 178.957,73.551 
		178.385,73.756 177.813,73.948 177.24,74.145 176.667,74.408 176.097,74.636 175.553,74.918 175.037,75.27 174.559,75.583 
		174.038,75.93 173.607,76.328 173.16,76.72 172.692,77.126 172.295,77.587 171.893,78.048 171.52,78.525 171.178,78.986 
		170.863,79.467 170.575,79.959 170.262,80.445 170.004,80.989 169.72,81.561 169.452,82.07 169.232,82.646 169.025,83.225 
		168.861,83.797 168.861,83.881 168.801,84.021 168.773,84.076 168.773,84.166 168.773,84.229 168.773,84.308 168.773,84.37 
		168.773,84.443 168.773,84.506 168.748,84.533 168.693,84.617 168.693,84.707 168.693,84.738 168.693,84.823 168.693,84.912 
		168.693,84.996 168.574,85.885 168.492,86.799 168.51,87.683 168.606,88.545 168.748,89.371 168.953,90.175 169.232,91.001 
		169.6,91.768 169.803,92.147 170.03,92.525 170.32,92.836 170.662,93.113 171.03,93.405 171.402,93.668 171.834,93.872 
		172.295,94.068 172.756,94.242 173.264,94.357 173.807,94.462 174.385,94.558 174.981,94.635 175.609,94.73 176.268,94.75 
		176.946,94.75 177.131,94.75 177.324,94.75 177.473,94.73 177.699,94.693 177.84,94.693 178.016,94.635 178.217,94.635 
		178.385,94.635 178.672,94.635 178.986,94.635 179.276,94.635 179.564,94.635 179.844,94.609 180.102,94.558 180.385,94.525 
		180.622,94.462 180.9,94.437 181.164,94.404 181.421,94.357 181.645,94.326 182.936,89.687 182.881,89.687 182.793,89.744 
		182.704,89.797 182.646,89.797 182.594,89.797 182.563,89.797 182.502,89.797 182.479,89.797 182.42,89.797 182.367,89.859 
		182.279,89.893 182.188,89.893 182.133,89.893 182.104,89.893 182.072,89.893 182.018,89.893 181.842,89.948 181.736,89.972 
		181.616,90.033 181.447,90.062 181.337,90.062 181.189,90.062 181.08,90.062 180.991,90.062 180.876,90.062 180.764,90.092 
		180.622,90.175 180.559,90.175 180.478,90.175 180.385,90.175 180.274,90.175 180.186,90.175 180.102,90.175 180.012,90.229 
		179.902,90.255 179.824,90.255 179.732,90.255 179.644,90.255 179.564,90.255 179.471,90.255 179.329,90.255 179.184,90.229 
		179.07,90.175 178.902,90.175 178.781,90.175 178.619,90.175 178.408,90.175 178.304,90.175 178.122,90.154 177.989,90.062 
		177.813,90.033 177.641,89.972 177.53,89.948 177.351,89.893 177.156,89.859 177.035,89.797 176.756,89.66 176.473,89.491 
		176.184,89.292 175.924,89.092 175.725,88.824 175.474,88.545 175.269,88.226 175.127,87.883 174.981,87.567 174.832,87.174 
		174.696,86.705 174.664,86.169 174.696,85.653 174.777,85.08 174.9,84.443 175.037,83.797 175.269,83.166 175.553,82.444 
		175.9,81.846 176.209,81.273 176.383,80.989 176.588,80.733 176.782,80.445 176.986,80.215 177.24,79.959 177.473,79.731 
		177.725,79.467 178.016,79.264 178.304,79.067 178.586,78.845 178.877,78.699 179.184,78.506 179.471,78.325 179.824,78.157 
		180.122,78.048 180.478,77.932 180.79,77.843 181.141,77.785 181.447,77.697 181.813,77.669 182.188,77.646 182.563,77.587 
		182.962,77.563 183.367,77.563 183.533,77.563 183.734,77.563 183.939,77.563 184.188,77.563 184.316,77.563 184.508,77.587 
		184.682,77.669 184.793,77.669 184.966,77.697 185.166,77.753 185.371,77.785 185.544,77.843 185.709,77.843 185.824,77.867 
		185.938,77.932 186.086,77.932 187.254,73.38 	"/>
	<polygon fill="#231F20" points="203.944,73.38 187.924,73.38 186.742,78.129 191.727,78.129 187.335,94.326 193.354,94.326 
		197.697,78.129 202.672,78.129 	"/>
	<polygon fill="#231F20" points="210.376,82.104 209.742,84.443 217.644,84.443 218.271,82.104 218.895,79.762 211.002,79.762 	"/>
	<polygon fill="#231F20" points="209.262,82.104 210.113,78.958 210.35,78.048 218.07,78.048 219.357,73.301 205.646,73.301 
		204.14,78.958 203.281,82.104 200.022,94.242 214.263,94.242 215.554,89.603 207.279,89.603 	"/>
	<polygon fill="#231F20" points="239.993,73.349 239.877,73.431 239.762,73.58 239.594,73.693 239.473,73.806 239.357,73.898 
		239.216,74.003 239.072,74.093 238.931,74.178 238.795,74.356 238.647,74.472 238.531,74.582 238.357,74.753 238.242,74.84 
		238.132,74.918 237.959,75.037 237.836,75.208 237.67,75.35 237.48,75.524 237.27,75.728 237.102,75.899 236.928,76.065 
		236.724,76.292 236.527,76.496 236.27,76.72 236.182,76.78 236.122,76.926 235.986,77.037 235.887,77.148 235.844,77.238 
		235.755,77.354 235.613,77.443 235.459,77.524 235.387,77.613 235.291,77.721 235.208,77.867 235.129,77.992 235.04,78.074 
		234.924,78.19 234.84,78.271 234.756,78.354 234.524,78.643 234.323,78.867 234.063,79.163 233.842,79.456 233.614,79.731 
		233.41,79.982 233.215,80.277 233.036,80.502 232.842,80.787 232.631,81.051 232.457,81.337 232.32,81.615 232.152,81.879 
		232.037,82.07 231.89,82.277 231.753,82.444 231.664,82.444 231.664,82.277 231.605,82.07 231.574,81.816 231.574,81.528 
		231.549,81.306 231.491,81.074 231.459,80.845 231.41,80.642 231.379,80.364 231.289,80.071 231.2,79.814 231.117,79.531 
		231.085,79.252 231.032,78.958 230.922,78.723 230.828,78.442 230.748,78.211 230.695,77.992 230.549,77.721 230.459,77.443 
		230.434,77.238 230.402,77.021 230.26,76.75 230.154,76.471 230.117,76.383 230.028,76.269 229.949,76.146 229.865,76.013 
		229.834,75.93 229.775,75.81 229.688,75.694 229.655,75.583 229.607,75.5 229.575,75.35 229.486,75.237 229.402,75.063 
		229.371,75.005 229.318,74.918 229.256,74.84 229.203,74.753 229.203,74.72 229.172,74.636 229.119,74.582 229.119,74.553 
		229.119,74.491 229.088,74.472 229.023,74.439 229.023,74.377 229.008,74.356 228.971,74.259 228.918,74.209 228.887,74.178 
		228.887,74.145 228.828,74.093 228.744,74.054 228.744,74.003 228.714,73.981 228.682,73.898 228.629,73.867 228.598,73.806 
		228.598,73.786 228.551,73.725 228.514,73.693 228.514,73.631 228.514,73.612 228.462,73.58 228.402,73.519 228.402,73.494 
		228.34,73.406 228.313,73.349 222.334,73.349 216.697,94.292 222.713,94.292 225.963,81.992 226.111,82.203 226.311,82.444 
		226.453,82.676 226.6,82.959 226.684,83.225 226.799,83.45 226.91,83.707 227.025,83.992 227.088,84.286 227.172,84.564 
		227.252,84.881 227.315,85.17 227.367,85.421 227.4,85.711 227.451,85.963 227.478,86.258 227.541,86.546 227.599,86.857 
		227.661,87.23 227.688,87.515 227.688,87.794 227.688,88.109 227.688,88.486 227.688,88.779 227.688,89.056 227.661,89.346 
		227.578,89.687 227.578,89.972 227.578,90.201 227.578,90.402 227.578,90.666 227.578,90.859 231.289,90.859 231.574,90.313 
		231.863,89.744 232.121,89.225 232.404,88.688 232.631,88.287 232.895,87.826 233.115,87.404 233.383,86.973 233.662,86.568 
		233.957,86.169 234.188,85.801 234.467,85.421 234.725,85.127 234.978,84.77 235.208,84.443 235.459,84.166 235.613,84.021 
		235.786,83.824 235.955,83.648 236.122,83.534 236.244,83.371 236.418,83.225 236.527,83.044 236.633,82.876 236.813,82.787 
		236.928,82.676 237.043,82.561 237.211,82.444 237.365,82.355 237.48,82.225 237.59,82.104 237.67,81.992 234.404,94.292 
		240.361,94.292 245.998,73.349 	"/>
	<polygon fill="#231F20" points="267.881,78.958 266.598,83.766 263.769,94.242 269.8,94.242 272.576,83.766 273.865,78.958 
		275.386,73.301 269.432,73.301 	"/>
	<polygon fill="#231F20" points="264.195,87.883 264.482,87.057 264.679,86.258 264.857,85.421 264.962,84.617 264.994,83.854 
		264.994,83.766 264.962,83.103 264.857,82.418 264.627,81.767 264.395,81.124 264.047,80.566 263.853,80.277 263.621,80.048 
		263.362,79.762 263.137,79.491 262.859,79.252 262.568,79.047 262.365,78.958 262.222,78.902 261.901,78.723 261.533,78.62 
		261.16,78.474 260.797,78.384 260.397,78.325 259.988,78.271 259.524,78.241 259.066,78.19 258.619,78.19 258.473,78.19 
		258.305,78.241 258.126,78.271 257.982,78.271 257.842,78.271 257.731,78.271 257.563,78.271 257.447,78.271 257.353,78.271 
		257.242,78.325 257.127,78.354 256.985,78.354 256.848,78.354 256.689,78.354 256.59,78.354 256.464,78.354 256.416,78.354 
		256.391,78.384 256.301,78.474 256.27,78.474 256.211,78.474 256.189,78.474 256.127,78.474 256.096,78.474 256.043,78.474 
		256.012,78.474 255.928,78.474 255.896,78.474 255.85,78.525 255.807,78.557 255.76,78.557 255.729,78.557 255.697,78.557 
		255.639,78.557 255.611,78.557 255.553,78.557 255.469,78.557 255.438,78.557 255.412,78.62 255.35,78.643 255.328,78.643 
		255.266,78.643 255.238,78.643 255.182,78.643 255.154,78.643 255.069,78.643 254.98,78.958 253.813,83.339 253.892,83.339 
		253.918,83.339 253.951,83.308 254.008,83.282 254.041,83.282 254.092,83.282 254.208,83.225 254.318,83.188 254.471,83.135 
		254.52,83.103 254.613,83.103 254.75,83.044 254.859,83.023 254.98,83.023 255.069,83.023 255.182,82.93 255.328,82.896 
		255.438,82.896 255.522,82.896 255.639,82.896 255.76,82.896 255.896,82.896 256.096,82.896 256.322,82.93 256.553,82.93 
		256.748,82.992 256.959,83.023 257.127,83.044 257.268,83.135 257.447,83.188 257.731,83.339 257.982,83.502 258.189,83.766 
		258.326,83.992 258.498,84.286 258.588,84.533 258.672,84.823 258.705,85.106 258.705,85.389 258.672,85.679 258.588,85.963 
		258.557,86.258 258.383,86.769 258.215,87.309 257.982,87.794 257.731,88.161 257.615,88.287 257.447,88.456 257.268,88.576 
		257.127,88.713 256.959,88.779 256.748,88.855 256.553,88.94 256.322,89.008 256.189,89.056 255.985,89.113 255.807,89.203 
		255.611,89.292 255.438,89.346 255.238,89.435 255.033,89.491 254.834,89.52 254.613,89.52 254.407,89.52 254.208,89.57 
		254.008,89.57 253.813,89.57 253.604,89.603 253.383,89.603 253.177,89.603 253.15,89.603 253.082,89.603 253.072,89.603 
		252.978,89.603 252.956,89.603 252.898,89.603 251.09,89.603 252.63,83.766 253.918,78.958 255.438,73.301 249.454,73.301 
		247.943,78.958 246.656,83.766 243.828,94.242 253.177,94.242 253.352,94.242 253.52,94.242 253.729,94.242 253.918,94.242 
		254.123,94.242 254.407,94.242 254.697,94.242 254.98,94.242 255.154,94.242 255.266,94.182 255.438,94.182 255.639,94.143 
		255.807,94.086 255.985,94.068 256.189,94.009 256.322,93.977 256.495,93.977 256.674,93.945 256.848,93.893 257.043,93.872 
		257.185,93.809 257.416,93.721 257.615,93.688 257.814,93.609 258.041,93.52 258.305,93.441 258.557,93.373 258.789,93.231 
		259.051,93.113 259.324,93.006 259.561,92.836 259.813,92.716 260.045,92.585 260.303,92.433 260.566,92.27 260.797,92.095 
		261.049,91.92 261.275,91.717 261.533,91.574 261.766,91.338 262.027,91.147 262.275,90.912 262.48,90.666 262.706,90.434 
		262.906,90.154 263.137,89.859 263.331,89.57 263.537,89.292 263.853,88.63 	"/>
</g>
<path fill="#231F20" d="M85.537,87.094l-3.258-4.499l-0.503,0.304l3.23,4.469L68.045,97.629l-1.14-1.553v-5.984l-0.086-0.174
	l-0.048-0.02l-7.026-9.629l1.737-1.047l-0.348-0.475l-1.733,1.046l-0.616-0.843l1.733-1.043l-0.35-0.477l-1.723,1.039l-1.039-1.414
	l1.723-1.042l-0.353-0.482l-1.725,1.04l-1.708-2.347V71.74l2.678-1.596v-0.27l0.138,0.188l1.215-0.725l-0.37-0.503l-3.845,2.316
	L43.73,55.578l16.913-10.208l10.698,14.692l0.511-0.307L60.984,44.851l-0.203-0.144l-0.198,0.032L43.192,55.235l-0.196,0.079
	l-0.12,0.263v2.074l-0.889-1.223l-0.195-0.142l-0.19,0.053l-0.005-0.023L24.266,66.773l-0.061-0.021l-0.203,0.093l-0.114,0.254
	v6.751h0.087l0.027,0.138l1.016,1.386l-0.813,0.42l-0.203,0.09l-0.114,0.259v6.686h0.087l0.027,0.141l11.589,15.814l0.05,0.172
	l0.172,0.115l0.226-0.033l1.031-0.65v2.026h0.019l0.037,0.173l11.646,15.859l0.027,0.068l0.166,0.116l0.232-0.023l17.423-10.505
	l0.196-0.029l0.086-0.266v-2.203l0.85,1.158l0.034,0.119l0.175,0.105l0.224-0.032l17.361-10.552l0.199-0.021l0.083-0.259v-6.72
	l-0.083-0.253L85.537,87.094z M66.118,90.006L49.109,100.26L37.75,84.795l17.082-10.298L66.118,90.006z M66.245,90.638v6.041
	l-16.77,10.104v-6.048L66.245,90.638z M36.232,83.155l16.882-10.108l0.008,1.801l-15.742,9.501l-0.197,0.079l-0.112,0.258v4.027
	l-0.855,0.512v-6.032l0.029-0.026L36.232,83.155z M37.726,85.758l11.09,15.119v5.643l-11.09-15.123V85.758z M43.541,56.287
	l11.148,15.208l0.008,2.396l-0.919,0.557l-0.008-1.943l-0.083-0.174l-0.168-0.113h-0.007l-9.972-13.664V56.287z M41.658,56.951
	L52.95,72.458L35.98,82.629L24.665,67.22L41.658,56.951z M24.548,73.725v-5.684l11.024,15.041l-0.015,0.031v5.633L24.548,73.725z
	 M35.611,97.821L24.548,82.708v-5.642l11.063,15.098V97.821z M36.027,91.717L24.636,76.209l0.729-0.368l10.192,13.881l0.047,0.106
	l0.037,0.119l0.172,0.113l0.226-0.028l1.031-0.616v1.647L36.027,91.717z M37.184,93.405l-0.112,0.252v4.037l-0.798,0.507v-5.953
	l0.934-0.568l0.896,1.229l-0.722,0.424L37.184,93.405z M48.772,115.454l-11.046-15.055v-5.644l11.046,15.052V115.454z
	 M49.087,109.249L37.741,93.793l0.708-0.425l10.31,14.041l0.043,0.157l0.166,0.111l0.232-0.027l16.182-9.759l0.75,1.114
	L49.087,109.249z M66.245,105.631l-16.818,10.135v-6.019l16.818-10.11V105.631z M67.755,103.784l-0.85-1.169v-3.488l-0.035-0.092
	l-0.051-0.078l-0.996-1.328l0.879-0.527l0.117-0.036l0.022-0.068l0.914,1.257V103.784z M85.177,93.951l-16.773,10.165v-6.03
	l16.773-10.108V93.951z"/>
<g>
	<polygon fill="#EE3425" points="75.326,57.665 58.318,67.896 69.624,83.317 86.494,73.112 	"/>
	<polygon fill="#EE3425" points="70.21,84.57 70.21,89.914 86.81,79.847 86.81,74.561 	"/>
	<polygon fill="#EE3425" points="58.022,74.503 68.748,89.129 68.748,84.475 58.022,69.874 	"/>
</g>
</svg>
